<svg viewBox="0 0 26 26" width="40" height="40" version="1.1" xmlns="http://www.w3.org/2000/svg"><path transform="scale(.65)" d="m12.309 0c-2.5481 0-4.6172 2.0672-4.6172 4.6152v30.77c0 2.5481 2.0691 4.6152 4.6172 4.6152h16.922c2.5481 0 4.6152-2.0672 4.6152-4.6152v-30.77c0-2.5481-2.0672-4.6152-4.6152-4.6152zm6.9219 1.5391h3.0781c0.42668 0 0.76758 0.34285 0.76758 0.76953 0 0.42668-0.3409 0.76758-0.76758 0.76758h-3.0781c-0.42668 0-0.76953-0.3409-0.76953-0.76758 0-0.42668 0.34285-0.76953 0.76953-0.76953zm-7.6914 3.0762h18.461c0.42668 0 0.76953 0.34285 0.76953 0.76953v26.154c0 0.42668-0.34285 0.76953-0.76953 0.76953h-18.461c-0.42668 0-0.76953-0.34284-0.76953-0.76953v-26.154c0-0.42668 0.34285-0.76953 0.76953-0.76953zm14.466 30.388c0.9953-0.003573 0.99482 0.52697 0.9953 0.99643 4.8e-4 0.47169 0 1-0.998 1.0032-3.3346 0.01073-10.004-0.0037-10.004-0.0037-0.99824 4.89e-4 -0.99387-0.53074-0.99344-1.0008 4.28e-4 -0.47195-0.0048-1.0038 0.99929-1.003l10.001 0.0079s-0.46945 0.0017 0-1.6e-5z" fill="#fff" stroke-width="1.5385"/>
<g transform="matrix(.24744 0 0 .24699 8.9106 7.6257)" fill="#fff"><path d="m22.3 6.569c-0.2 0-0.4-0.1-0.6-0.2-0.5-0.3-0.6-0.9-0.3-1.4l1.7-2.5c0.3-0.5 0.9-0.6 1.4-0.3s0.6 0.9 0.3 1.4l-1.7 2.5c-0.1 0.3-0.4 0.5-0.8 0.5zm-9-0.4c-0.3 0-0.7-0.2-0.8-0.5l-1.3-2.1c-0.3-0.5-0.2-1.1 0.3-1.4s1.1-0.2 1.4 0.3l1.3 2.1c0.3 0.5 0.2 1.1-0.3 1.4-0.2 0.1-0.4 0.2-0.6 0.2zm-7.3 18.9c0 1.1-0.9 2-2 2s-2-0.9-2-2v-9c0-1.1 0.9-2 2-2s2 0.9 2 2zm28 0c0 1.1-0.9 2-2 2s-2-0.9-2-2v-9c0-1.1 0.9-2 2-2s2 0.9 2 2zm-18 11c0 1.1-0.9 2-2 2s-2-0.9-2-2v-9c0-1.1 0.9-2 2-2s2 0.9 2 2zm8 0c0 1.1-0.9 2-2 2s-2-0.9-2-2v-9c0-1.1 0.9-2 2-2s2 0.9 2 2z"/><path d="m8 14.069v15c0 1.1 0.9 2 2 2h16c1.1 0 2-0.9 2-2v-15zm10-10c-6 0-9.7 3.6-10 8h20c-0.3-4.4-4-8-10-8zm-4 5.6c-0.6 0-1-0.4-1-1s0.4-1 1-1 1 0.4 1 1c0 0.5-0.4 1-1 1zm8 0c-0.6 0-1-0.4-1-1s0.4-1 1-1 1 0.4 1 1c0 0.5-0.4 1-1 1z"/></g></svg>