<svg version="1.1" viewBox="0 0 1277 648" xml:space="preserve" xmlns="http://www.w3.org/2000/svg">
<g transform="matrix(4.531,0,0,3.332,15,-16.08)" fill="#55576b"><g transform="matrix(1.034 0 0 1.618 -10.13 -85.85)" fill="#55576b">
<g fill="#55576b">
<g fill="#55576b">
<g fill="#55576b">
<path d="m171.4 169.7h-56c-.23 0-.42.49-.42 1.08 0 .6.19 1.08.42 1.08h9.05c.22 0 .4.48.4 1.08 0 .53-.14.97-.33 1.06h-6.55c-.23 0-.42.49-.42 1.08 0 .6.19 1.08.42 1.08h44.85c.23 0 .42-.48.42-1.08s-.19-1.08-.42-1.08h-3.88c-.2-.09-.35-.53-.35-1.06 0-.6.19-1.08.42-1.08h12.38c.23 0 .42-.48.42-1.08 0-.59-.19-1.08-.41-1.08z" fill="#55576b"/>
</g>
</g>
</g>
</g></g><g transform="matrix(4.193,0,0,4.29,61.27,-111.1)"><g fill="#55576b">
<g transform="matrix(.9135 0 0 1.124 9.234 -39.68)"><g transform="translate(0 .8299)" fill="#55576b"><g fill="#55576b"><g fill="#55576b"><g fill="#55576b"><path d="m62.63 154.8h147.7c.61 0 1.1 1.23 1.1 2.76 0 1.52-.49 2.75-1.1 2.75h-23.85c-.58 0-1.06 1.23-1.06 2.75 0 1.36.38 2.48.87 2.7h17.27c.61 0 1.1 1.23 1.1 2.76 0 1.52-.49 2.75-1.1 2.75h-118.3c-.61 0-1.1-1.23-1.1-2.75s.49-2.76 1.1-2.76h10.24c.51-.23.91-1.35.91-2.7 0-1.52-.5-2.75-1.1-2.75h-32.66c-.61 0-1.1-1.23-1.1-2.75 0-1.53.49-2.76 1.1-2.76z" fill="#55576b"/></g></g></g></g></g><g transform="matrix(1.035,0,0,1.124,-7.767,-21.18)">
<g fill="#55576b">
<g fill="#55576b">
<g fill="#55576b">
<g fill="#55576b">
<path d="m62.63 154.8h147.7c.61 0 1.1 1.23 1.1 2.76 0 1.52-.49 2.75-1.1 2.75h-23.85c-.58 0-1.06 1.23-1.06 2.75 0 1.36.38 2.48.87 2.7h17.27c.61 0 1.1 1.23 1.1 2.76 0 1.52-.49 2.75-1.1 2.75h-118.3c-.61 0-1.1-1.23-1.1-2.75s.49-2.76 1.1-2.76h10.24c.51-.23.91-1.35.91-2.7 0-1.52-.5-2.75-1.1-2.75h-32.66c-.61 0-1.1-1.23-1.1-2.75 0-1.53.49-2.76 1.1-2.76z" fill="#55576b"/>
</g>
</g>
</g>
</g>
</g>
<g transform="matrix(1.085,0,0,1,-12.2,0)">
<g fill="#55576b">
<g fill="#55576b">
<g fill="#55576b">
<g fill="#55576b">
<path d="m144.1 70.29h-127.7c-.53 0-.95 1.11-.95 2.47s.43 2.47.95 2.47h20.63c.5 0 .91 1.11.91 2.47 0 1.22-.33 2.22-.75 2.43h-14.95c-.52 0-.95 1.11-.95 2.47s.43 2.47.95 2.47h102.3c.53 0 .95-1.11.95-2.47s-.42-2.47-.95-2.47h-8.85c-.45-.2-.79-1.21-.79-2.42 0-1.37.42-2.47.95-2.47h28.24c.52 0 .95-1.1.95-2.47.01-1.38-.41-2.48-.94-2.48z" fill="#55576b"/>
</g>
</g>
</g>
</g>
</g>
<g transform="matrix(1.245 0 0 1.052 -20.89 -2.227)">
<g transform="matrix(1.247 0 0 1 -37.17 .443)">
<g fill="#55576b">
<g fill="#55576b">
<g fill="#55576b">
<path d="m101.9 36.19h55.41c.23 0 .41-.7.41-1.57s-.18-1.57-.41-1.57h-8.95c-.22 0-.4-.7-.4-1.57 0-.77.14-1.41.33-1.54h6.49c.23 0 .41-.71.41-1.57 0-.87-.19-1.57-.41-1.57h-44.38c-.23 0-.41.7-.41 1.57s.18 1.57.41 1.57h3.84c.2.13.34.77.34 1.54 0 .87-.18 1.57-.41 1.57h-12.26c-.23 0-.41.7-.41 1.57-.01.87.18 1.57.4 1.57z" fill="#55576b"/>
</g>
</g>
</g>
</g>
<g transform="matrix(1.436,0,0,1,-60.03,6.68)"><g fill="#55576b"><g fill="#55576b"><g fill="#55576b"><path d="m101.9 36.19h55.41c.23 0 .41-.7.41-1.57s-.18-1.57-.41-1.57h-8.95c-.22 0-.4-.7-.4-1.57 0-.77.14-1.41.33-1.54h6.49c.23 0 .41-.71.41-1.57 0-.87-.19-1.57-.41-1.57h-44.38c-.23 0-.41.7-.41 1.57s.18 1.57.41 1.57h3.84c.2.13.34.77.34 1.54 0 .87-.18 1.57-.41 1.57h-12.26c-.23 0-.41.7-.41 1.57-.01.87.18 1.57.4 1.57z" fill="#55576b"/></g></g></g></g></g>
<g transform="matrix(1.178,0,0,1,-33.06,0)">
<g fill="#55576b">
<g fill="#55576b">
<g fill="#55576b">
<g fill="#55576b">
<path d="m246.5 77.49h-55.99c-.23 0-.42.49-.42 1.08 0 .6.19 1.08.42 1.08h9.05c.22 0 .4.49.4 1.08 0 .53-.14.98-.33 1.07h-6.55c-.23 0-.42.49-.42 1.08 0 .6.19 1.08.42 1.08h44.86c.23 0 .42-.48.42-1.08s-.19-1.08-.42-1.08h-3.88c-.2-.09-.35-.53-.35-1.06 0-.6.19-1.08.42-1.08h12.38c.23 0 .42-.48.42-1.08-.01-.6-.2-1.09-.43-1.09z" fill="#55576b"/>
</g>
</g>
</g>
</g>
</g>
<g transform="matrix(1.02,0,0,1,-2.547,0)">
<g fill="#55576b">
<g fill="#55576b">
<g transform="matrix(1 0 0 .8664 0 13.39)" fill="#55576b">
<g fill="#55576b">
<path d="m269.6 100.2h-161.1c-.66 0-1.2 1.4-1.2 3.12s.54 3.11 1.2 3.11h26.01c.63 0 1.15 1.4 1.15 3.12 0 1.53-.41 2.8-.95 3.06h-18.84c-.66 0-1.2 1.4-1.2 3.11 0 1.72.54 3.12 1.2 3.12h129c.66 0 1.2-1.4 1.2-3.12s-.54-3.11-1.2-3.11h-11.16c-.57-.25-.99-1.52-.99-3.06 0-1.72.54-3.11 1.2-3.11h35.63c.66 0 1.2-1.39 1.2-3.11-.01-1.74-.54-3.13-1.2-3.13z" fill="#55576b"/>
</g>
</g>
</g>
</g>
</g>
<g transform="matrix(1.14,0,0,1,-27.5,0)">
<g fill="#55576b">
<g fill="#55576b">
<g fill="#55576b">
<g fill="#55576b">
<path d="m202.6 100.2h-161.1c-.66 0-1.2 1.4-1.2 3.12s.54 3.11 1.2 3.11h26.01c.63 0 1.15 1.4 1.15 3.12 0 1.53-.41 2.8-.95 3.06h-18.84c-.66 0-1.2 1.4-1.2 3.11 0 1.72.54 3.12 1.2 3.12h129c.66 0 1.2-1.4 1.2-3.12s-.54-3.11-1.2-3.11h-11.16c-.57-.25-1-1.52-1-3.06 0-1.72.54-3.11 1.2-3.11h35.63c.66 0 1.2-1.39 1.2-3.11.01-1.74-.53-3.13-1.19-3.13z" fill="#55576b"/>
</g>
</g>
</g>
</g>
</g>
<g transform="matrix(1.141,0,0,1.043,-19.04,-16.77)">
<g fill="#55576b">
<g fill="#55576b">
<g fill="#55576b">
<path d="m198 102.4c0 33.19-26.91 60.1-60.1 60.1-33.2 0-60.11-26.91-60.11-60.1s26.91-60.11 60.11-60.11c33.19 0 60.1 26.91 60.1 60.11z" fill="#55576b"/>
</g>
</g>
</g>
</g>
<g transform="matrix(1.112 0 0 1 .3033 0)">
<g fill="#55576b">
<g fill="#55576b">
<g fill="#55576b">
<g fill="#55576b">
<path d="m45.06 61.87h155.7c.64 0 1.16-1.52 1.16-3.39s-.52-3.38-1.16-3.38h-25.15c-.61 0-1.11-1.52-1.11-3.38 0-1.67.39-3.05.91-3.33h18.21c.64 0 1.16-1.52 1.16-3.39s-.52-3.38-1.16-3.38h-124.7c-.64 0-1.16 1.51-1.16 3.38s.52 3.39 1.16 3.39h10.8c.54.28.96 1.66.96 3.32 0 1.87-.52 3.38-1.16 3.38h-34.44c-.64 0-1.15 1.51-1.15 3.38 0 1.88.51 3.4 1.15 3.4z" fill="#55576b"/>
</g>
</g>
</g>
</g>
</g>
</g><g transform="matrix(1.205,0,0,1.196,-27.07,-32.11)" fill="#fff">
<g fill="#fff">
<g fill="#fff">
<g fill="#fff">
<g fill="#fff">
<g fill="#fff">
<g fill="#fff">
<path d="m77.99 77.78c0 6.06-4.91 10.97-10.97 10.97s-10.97-4.91-10.97-10.97c0-6.05 4.91-10.96 10.97-10.96 6.06-.01 10.97 4.9 10.97 10.96z" fill="#fff"/>
</g>
</g>
</g>
</g>
</g>
</g></g><g transform="matrix(-1.205,0,0,1.196,304,-32.11)" fill="#fff"><g fill="#fff"><g fill="#fff"><g fill="#fff"><g fill="#fff"><g fill="#fff"><g fill="#fff"><path d="m77.99 77.78c0 6.06-4.91 10.97-10.97 10.97s-10.97-4.91-10.97-10.97c0-6.05 4.91-10.96 10.97-10.96 6.06-.01 10.97 4.9 10.97 10.96z" fill="#fff"/></g></g></g></g></g></g></g><g transform="matrix(-1.037,0,0,1,297.5,-3.007)"><path d="m98.73 161.2c0 6.25 5.07 11.32 11.32 11.32s11.31-5.07 11.31-11.32-5.06-11.32-11.31-11.32c-6.25.01-11.32 5.08-11.32 11.32z" fill="#fff"/></g><path d="m231.6 131.2c0 6.14-5.163 11.11-11.53 11.11-6.365 0-11.52-4.97-11.52-11.11s5.162-11.11 11.52-11.11c6.365 0 11.53 4.98 11.53 11.11z" fill="#fff" stroke-width="1.018"/><g transform="matrix(-.02749 -.004007 -.003745 .02646 228 125.6)" fill="#182468"><g fill="#404c8f"><path d="m480 64h-448c-17.67 0-32 14.33-32 32v320c0 17.67 14.33 32 32 32h448c17.67 0 32-14.33 32-32v-320c0-17.67-14.33-32-32-32zm-32 64v190.4l-83.5-104.4c-2.984-3.734-7.484-5.938-12.27-6.008-4.75-.102-9.344 1.992-12.42 5.641l-88.5 104.1-48.91-41.91c-5.656-4.836-13.88-5.148-19.88-.758l-118.5 86.93v-234z"/><circle cx="160" cy="192" r="32"/></g></g><g transform="matrix(-1.489,0,0,1.423,341.5,-52.27)"><g transform="translate(-6.84,-3.168)" fill="#fff"><g fill="#fff"><g fill="#fff"><g fill="#fff"><g fill="#fff"><g fill="#fff"><path d="m79.47 106.7c0 3.1-2.52 5.62-5.63 5.62s-5.63-2.52-5.63-5.62 2.52-5.62 5.63-5.62 5.63 2.52 5.63 5.62z" fill="#fff"/></g></g></g></g></g></g></g><g fill="#182468"><g transform="matrix(-.0168 -.002261 -.0019 .016 246.6 91.5)"><path d="m480 0h-448c-17.67 0-32 13.95-32 31.62v448c0 17.67 14.33 32.38 32 32.38h448c17.67 0 32-14.7 32-32.38v-448c0-17.67-14.33-31.62-32-31.62zm-368 448h-48v-48h48zm0-112h-48v-48h48zm0-112h-48v-48h48zm0-112h-48v-48h48zm112 207.6v-112l96 56zm224 128.4h-48v-48h48zm0-112h-48v-48h48zm0-112h-48v-48h48zm0-112h-48v-48h48z" fill="#404c8f"/></g><g transform="matrix(.04718 -.01192 .01234 .04671 214.6 55.73)"><g fill="#404c8f"><path d="m211 27.08c0 14.95 11.26 27.07 25.16 27.07h25.16l-50.31-54.15v27.08z"/><path d="m35.66 32.82c.1126 78.25-.2254 156.5.1694 234.8 1.35 18.98 20.48 31.84 38.61 29.45 52.46-.1119 104.9.2245 157.4-.1694 18.98-1.353 31.85-20.48 29.46-38.61v-197.5c-13.2-.7242-26.91 1.898-39.6-2.385-14.36-5.998-18.67-22.32-17.42-36.51v-21.83c-46.38.1125-92.78-.2257-139.2.1702-16.35 1.385-29.8 16.26-29.45 32.65zm66.86 151.6c8.735-1.505 18.38 3.519 15.16-8.901.3112-16.58-.6291-33.26.4814-49.77 4.289-7.615 14.48-6.067 21.87-8.587 18.14-3.628 36.19-8.037 54.37-11.19 7.769.1976 8.616 9.03 7.841 14.95-.1689 23.78.3421 47.59-.2632 71.35-3.325 24.19-43.25 30.63-52.41 7.264-5.912-19.23 17.39-34.25 34.55-29.49 3.826-.7798.7827-10.44 1.756-14.91v-30.93l-51.84 10.94c-.1716 23.84.3483 47.7-.2692 71.52-3.325 24.18-43.25 30.64-52.41 7.274-4.843-14.03 8.071-27.14 21.16-29.52z"/><path d="m154.7 228.2h-1.819c-1.013 0-1.823 1.388-1.823 3.081v2.739c0 1.693.795 3.076 1.781 3.076h1.803c1.714 0 3.094-.373 4.14-1.108 1.03-.751 1.563-1.838 1.563-3.282 0-1.554-.486-2.642-1.476-3.387-.999-.745-2.388-1.119-4.169-1.119z"/></g></g><g transform="matrix(.2245 .07858 -.08038 .2195 179.2 149.7)"><g fill="#404c8f"><path d="m50.95 12.19-11.64-11.64c-.349-.349-.833-.55-1.328-.55h-29.02c-1.186 0-2.463.916-2.463 2.926v36.07h.633l16.74-14.24c.397-.337.986-.314 1.355.055l4.743 4.743 9.795-10.73c.181-.198.434-.315.703-.325.282-.009.53.09.725.274l10 9.5.311.297v-14.59c-.001-.766-.093-1.333-.551-1.791zm-34.45 11.45c-3.071 0-5.569-2.498-5.569-5.569s2.498-5.569 5.569-5.569 5.569 2.498 5.569 5.569-2.498 5.569-5.569 5.569zm31.61-9.638h-10.61v-10.61c0-.458.553-.687.877-.363l10.1 10.1c.324.324.095.877-.363.877z"/><path d="m31.38 30.97 4.807 4.807c.391.391.391 1.023 0 1.414s-1.023.391-1.414 0l-10.31-10.31-14.24 12.12h41.28v-7.636l-10.95-10.44z"/><path d="m20.82 49.06c.196-.068.376-.18.54-.335s.296-.371.396-.649.15-.622.15-1.032c0-.164-.023-.354-.068-.567-.046-.214-.139-.419-.28-.615-.142-.196-.34-.36-.595-.492s-.593-.198-1.012-.198h-1.23v3.992h1.504c.201-.002.399-.036.595-.104z"/><path d="m16.5 14.5c-1.968 0-3.569 1.601-3.569 3.569s1.601 3.569 3.569 3.569 3.569-1.601 3.569-3.569-1.601-3.569-3.569-3.569z"/><path d="m7.85 41h-1.35v15c0 1.009 1.22 2 2.463 2h40.07c1.243 0 2.463-.991 2.463-2v-15h-43zm27.45 5.679c.214-.643.51-1.178.889-1.606.378-.429.822-.754 1.333-.978.51-.224 1.062-.335 1.654-.335.547 0 1.057.091 1.531.273.474.183.897.456 1.271.82l-1.135 1.012c-.219-.265-.47-.456-.752-.574-.283-.118-.574-.178-.875-.178-.337 0-.659.063-.964.191-.306.128-.579.344-.82.649-.242.306-.431.699-.567 1.183s-.21 1.075-.219 1.777c.009.684.08 1.276.212 1.777s.314.911.547 1.23.497.556.793.711.608.232.937.232c.1 0 .234-.007.403-.021.168-.014.337-.036.506-.068.168-.032.33-.075.485-.13s.269-.132.342-.232v-2.488h-1.709v-1.121h3.336v3.896c-.21.265-.444.48-.704.649s-.533.308-.82.417-.584.189-.889.235c-.306.046-.608.068-.909.068-.602 0-1.155-.109-1.661-.328s-.948-.542-1.326-.971-.675-.966-.889-1.613-.321-1.395-.321-2.242.106-1.593.321-2.235zm-9.933-2.755h1.668l3.951 6.945v-6.945h1.668v10.08h-1.668l-3.951-6.945v6.945h-1.668zm-8.285 0h2.898c.428 0 .852.068 1.271.205s.795.342 1.128.615.602.604.807.991.308.822.308 1.306c0 .511-.087.973-.26 1.388s-.415.764-.725 1.046-.684.501-1.121.656-.921.232-1.449.232h-1.217v3.637h-1.641v-10.08z"/></g></g></g></g><g transform="matrix(4.35,0,0,4.371,45.7,-159)" fill="#4b4a4c">
<g transform="translate(0,-4.397)">
<g fill="#4b4a4c">
<g fill="#4b4a4c">
<polygon points="148.4 149 125.1 149 126.7 133.6 146.8 133.6" fill="#4b4a4c"/>
</g>
</g>
</g></g><g transform="matrix(4.35,0,0,4.371,44.79,-135.6)" fill="#414042"><g fill="#414042">
<g fill="#414042">
<path d="m156.2 140.2c0 .56-.9 1.01-2.01 1.01h-34.43c-1.11 0-2.01-.45-2.01-1.01v-.27c0-.55.9-1 2.01-1h34.43c1.11 0 2.01.45 2.01 1z" fill="#414042"/>
</g>
</g>
</g><g transform="matrix(4.35,0,0,4.371,45.7,-159)" fill="#5c5b5d"><g fill="#5c5b5d">
<g fill="#5c5b5d">
<path d="m84.27 127.1v6.09c0 2.34 1.9 3.41 4.24 3.41h96.47c2.34 0 4.24-1.07 4.24-3.41v-6.09z" fill="#5c5b5d"/>
</g>
</g>
</g><g transform="matrix(4.35,0,0,4.371,45.7,-159)"><path d="m189.2 129.8v-62.81c0-2.34-1.9-3.41-4.24-3.41h-96.47c-2.34 0-4.24 1.07-4.24 3.41v62.81z" fill="#414042"/>
<g fill="#e5e8f0">
<g fill="#e5e8f0">
<g fill="#e5e8f0">
<g fill="#e5e8f0">
<rect x="86.77" y="66.75" width="99.96" height="59.87" fill="#e5e8f0"/>
</g>
</g>
</g>
</g>

<g transform="matrix(1.002 0 0 1 -.3814 0)">
<path d="m173.1 126.6v-64.42c0-4.17-2.87-5.67-6.4-5.67h-60.38c-3.53 0-6.4 1.49-6.4 5.67v64.41h73.18z" fill="#fff"/>
</g></g><g transform="matrix(5.732,0,0,-5.679,-92.5,892.4)"><g transform="matrix(.1046 0 0 -.1086 55.62 112.2)"><g transform="matrix(1.669,0,0,1.621,345.7,-1004)"><g id="XMLID_839_"><path id="XMLID_841_" d="m-14.98 561.9 20.37-16.28 10.19 7.234v-45.21h-61.12v54.25z" fill="#ffe98f" stroke-width=".1919"/>
<path id="XMLID_842_" d="m15.75 552.9-10.36-7.234-20.37 16.28z" fill="#ffc579"/>
<path d="m-18.76 501.8-3.398 9.465 11.65.2427 2.184-8.494z" fill="#dba6ff"/><path d="m-16.69 629.5 20.37-16.28 10.19 7.234v-45.21h-61.12v54.25z" fill="#ffe98f" stroke-width=".1919"/><path d="m14.04 620.5-10.36-7.234-20.37 16.28z" fill="#ffc579"/><path d="m-20.47 569.4-3.398 9.465 11.65.2427 2.184-8.494z" fill="#dba6ff"/><g transform="scale(.9581 1.044)" fill="#414042" stroke-width="1.786" aria-label="ISO"><path d="m-28.32 581.9h-9.128v-2.763h2.554v-10.06h-2.554v-2.763h9.128v2.763h-2.554v10.06h2.554z"/><path d="m-12.54 577q0 2.303-1.957 3.747-1.947 1.434-5.297 1.434-1.937 0-3.381-.335-1.434-.3454-2.69-.8688v-3.737h.4396q1.246.9944 2.784 1.528 1.549.5338 2.973.5338.3664 0 .963-.0628t.9735-.2094q.4606-.1884.7537-.471.3036-.2826.3036-.8374 0-.5129-.4396-.8793-.4292-.3768-1.267-.5757-.8793-.2094-1.863-.3873-.9735-.1884-1.832-.471-1.968-.6385-2.837-1.727-.8583-1.099-.8583-2.722 0-2.177 1.947-3.549 1.957-1.382 5.024-1.382 1.539 0 3.036.3036 1.507.2931 2.606.7432v3.59h-.4292q-.9421-.7537-2.313-1.256-1.361-.5129-2.784-.5129-.5024 0-1.005.0733-.492.0628-.9526.2512-.4082.157-.7013.4815-.2931.314-.2931.7223 0 .6176.471.9526.471.3245 1.779.5967.8583.178 1.643.3454.7955.1675 1.706.4606 1.79.5862 2.638 1.602.8583 1.005.8583 2.617z"/><path d="m5.378 574.1q0 3.726-2.135 5.925-2.135 2.188-5.904 2.188-3.758 0-5.893-2.188-2.135-2.198-2.135-5.925 0-3.758 2.135-5.935 2.135-2.188 5.893-2.188 3.747 0 5.893 2.188 2.146 2.177 2.146 5.935zm-5.328 3.946q.5862-.7118.8688-1.675.2826-.9735.2826-2.282 0-1.403-.3245-2.387t-.8479-1.591q-.5338-.6281-1.235-.9107-.6909-.2826-1.445-.2826-.7641 0-1.445.2722-.6699.2722-1.235.9002-.5234.5862-.8583 1.622-.3245 1.026-.3245 2.387 0 1.392.314 2.376.3245.9735.8479 1.591t1.225.9107q.7013.2931 1.476.2931t1.476-.2931q.7013-.3036 1.225-.9316z"/></g><path d="m430.3 562.9 20.37-16.28 10.19 7.234v-45.21h-61.12v54.25z" fill="#ffe98f" stroke-width=".1919"/><path d="m461 553.8-10.36-7.234-20.37 16.28z" fill="#ffc579"/><path d="m426.5 502.7-3.398 9.465 11.65.2427 2.184-8.494z" fill="#dba6ff"/><g transform="scale(.9581 1.044)" fill="#414042" stroke-width="1.786" aria-label="ZIP"><path d="m443.8 518h-13.09v-2.92l7.767-9.651h-7.39v-3.015h12.3v2.973l-7.756 9.599h8.175z"/><path d="m455 518h-9.128v-2.763h2.554v-10.06h-2.554v-2.763h9.128v2.763h-2.554v10.06h2.554z"/><path d="m471.2 507.4q0 1.047-.3664 2.052-.3664.9944-1.047 1.675-.9316.9212-2.083 1.392-1.141.471-2.847.471h-2.502v5.077h-4.02v-15.59h6.616q1.486 0 2.502.2617 1.026.2512 1.811.7641.9421.6176 1.434 1.581.5024.963.5024 2.313zm-4.156.0942q0-.6595-.3559-1.13-.3559-.4815-.827-.6699-.628-.2512-1.225-.2722-.5966-.0314-1.591-.0314h-.6909v4.669h1.151q1.026 0 1.685-.1256.6699-.1256 1.12-.5024.3873-.335.5548-.7955.178-.471.178-1.141z"/></g><path d="m429.6 637.7 20.37-16.28 10.19 7.234v-45.21h-61.12v54.25z" fill="#ffe98f" stroke-width=".1919"/><path d="m460.3 628.6-10.36-7.234-20.37 16.28z" fill="#ffc579"/><path d="m425.8 577.5-3.398 9.465 11.65.2427 2.184-8.494z" fill="#dba6ff"/><g transform="scale(.9581 1.044)" fill="#414042" stroke-width="1.786" aria-label="7z"><path d="m447 577.2-7.055 12.49h-4.48l7.327-12.6h-8.008v-2.983h12.22z"/><path d="m460.3 589.7h-11.04v-2.418l6.197-6.584h-5.946v-2.753h10.68v2.376l-6.103 6.574h6.218z"/></g></g></g><g transform="scale(.972 1.029)" fill="#414042" stroke-width="2.938" aria-label="RAR"><path d="m306.6-143.5q0-.964-.3959-1.653-.3959-.6886-1.36-1.085-.6714-.2754-1.567-.3271-.8952-.0689-2.083-.0689h-2.393v6.903h2.031q1.584 0 2.651-.1549t1.79-.7058q.6886-.5337.9984-1.171.3271-.6542.3271-1.739zm10.31 17.78h-8.074l-6.989-9.399h-3.047v9.399h-6.576v-25.63h11.09q2.272 0 3.908.2582 1.635.2582 3.064 1.119 1.446.8607 2.29 2.238.8607 1.36.8607 3.426 0 2.84-1.326 4.631-1.308 1.79-3.753 2.978z"/><path d="m343.6-125.7h-6.834l-1.773-5.182h-9.503l-1.773 5.182h-6.662l9.468-25.63h7.609zm-10.21-9.881-3.15-9.193-3.15 9.193z"/><path d="m361.7-143.5q0-.964-.3959-1.653t-1.36-1.085q-.6714-.2754-1.567-.3271-.8952-.0689-2.083-.0689h-2.393v6.903h2.031q1.584 0 2.651-.1549t1.79-.7058q.6886-.5337.9985-1.171.3271-.6542.3271-1.739zm10.31 17.78h-8.074l-6.989-9.399h-3.047v9.399h-6.576v-25.63h11.09q2.272 0 3.908.2582t3.064 1.119q1.446.8607 2.29 2.238.8607 1.36.8607 3.426 0 2.84-1.326 4.631-1.308 1.79-3.753 2.978z"/></g></g></g><g transform="translate(28)" fill="#404c8f"><g transform="matrix(4.111,0,0,4.376,34.18,-146.8)" stroke-width=".6435" aria-label="x32"><path d="m112.9 104.2h-.8936l-1.195-1.618-1.203 1.618h-.8258l1.644-2.1-1.629-2.112h.8936l1.188 1.591 1.192-1.591h.8295l-1.655 2.074z"/><path d="m117 101.5q.181.1621.2979.4072t.1169.6335q0 .3846-.1395.7051t-.3921.558q-.2828.264-.6674.3922-.3808.1244-.8371.1244-.4676 0-.92-.1131-.4525-.1094-.7428-.2413v-.7881h.0566q.3205.2112.7541.3507t.8371.1395q.2376 0 .5053-.0792t.4336-.2338q.1734-.1659.2564-.3658.0867-.1998.0867-.5053 0-.3017-.098-.4977-.0943-.1998-.264-.313-.1697-.1169-.411-.1584-.2413-.0453-.5204-.0453h-.3394v-.6259h.264q.5731 0 .9125-.2376.3431-.2413.3431-.7013 0-.2036-.0867-.3544-.0867-.1546-.2413-.2526-.1621-.09804-.3469-.1357-.1848-.03771-.4185-.03771-.3582 0-.7617.1282t-.7617.362h-.0377v-.7881q.2677-.132.7126-.2413.4487-.1131.8672-.1131.411 0 .724.07541t.5656.2413q.2715.181.411.4374t.1395.5995q0 .4676-.3318.8182-.328.3469-.7768.4374v.0528q.181.0302.4148.1282.2338.0943.3959.2376z"/><path d="m122.4 104.2h-3.801v-.7881q.3959-.3394.7918-.6787.3997-.3394.7428-.675.724-.7013.9917-1.112.2677-.4148.2677-.8936 0-.4374-.2903-.6825-.2866-.2489-.8032-.2489-.3431 0-.7428.1207t-.7805.3695h-.0377v-.7918q.2677-.132.7126-.2413.4487-.1093.8672-.1093.8635 0 1.354.4185.4902.4148.4902 1.127 0 .3205-.083.5995-.0792.2753-.2376.5241-.147.2338-.3469.46-.1961.2262-.4789.5015-.4035.3959-.8333.7692-.4299.3695-.8032.6863h3.02z"/></g><g transform="matrix(4.212,0,0,4.271,34.18,-146.8)" stroke-width=".5975" aria-label="x64"><path d="m160.2 106h-.8298l-1.11-1.502-1.117 1.502h-.7668l1.527-1.95-1.513-1.961h.8298l1.103 1.478 1.106-1.478h.7703l-1.537 1.926z"/><path d="m164.6 104.3q0 .7948-.5252 1.299-.5217.5007-1.281.5007-.3851 0-.7002-.119t-.5567-.3536q-.3011-.2906-.4657-.7703-.161-.4797-.161-1.155 0-.6932.147-1.229.1506-.5357.4762-.9523.3081-.3956.7948-.6162.4867-.2241 1.134-.2241.2066 0 .3466.0175t.2836.063v.6687h-.035q-.098-.0525-.2976-.098-.1961-.049-.4026-.049-.7528 0-1.201.4727-.4482.4692-.5217 1.271.2941-.1786.5777-.2696.2871-.0945.6617-.0945.3326 0 .5847.063.2556.0595.5217.2451.3081.2136.4622.5392.1576.3256.1576.7913zm-.7108.028q0-.3256-.098-.5392-.0945-.2136-.3151-.3711-.1611-.112-.3571-.147-.1961-.035-.4096-.035-.2976 0-.5532.07t-.5252.2171q-.007.077-.0105.1506-.004.07-.004.1786 0 .5532.112.8753.1155.3186.3151.5042.1611.154.3466.2276.1891.07.4096.07.5077 0 .7983-.3081.2906-.3116.2906-.8928z"/><path d="m169.2 104.5h-.7738v1.467h-.6722v-1.467h-2.496v-.8053l2.524-2.941h.6442v3.186h.7738zm-1.446-.5602v-2.353l-2.02 2.353z"/></g><g transform="matrix(.1213 0 0 .1217 558 238.7)"><g fill="#404c8f"><g fill="#404c8f"><path d="m178.2 616.4v98.6h-58.66c-12.45 0-18.41 15.28-9.255 23.72l219.7 202.3c6.481 5.968 14.71 8.951 22.94 8.951 8.228 0 16.46-2.984 22.94-8.951l219.7-202.3c9.155-8.431 3.19-23.72-9.255-23.72h-58.66v-98.6z"/><path d="m772.9 625.1v-33.98h89.74c22.1 0 40.02-17.92 40.02-40.02v-449.8c0-22.1-17.92-40.02-40.02-40.02h-127.9c.001.088.013.172.013.261v39.17c0 7.751-6.283 14.03-14.03 14.03h-41.87c-7.751 0-14.03-6.283-14.03-14.03v-39.17c0-.088.012-.173.013-.261h-259.3l-41.72-48.11c-7.29-8.408-17.87-13.24-29-13.24h-247.6c-22.1 0-40.02 17.92-40.02 40.02v511.1c0 22.1 17.92 40.02 40.02 40.02h478.4v33.98c0 22.42 18.24 40.66 40.66 40.66h125.9c22.42-.002 40.65-18.24 40.65-40.66zm-181.9 0v-177.7c0-6.79 4.402-12.54 10.51-14.58 1.536-.514 3.174-.804 4.883-.804h125.9c8.499 0 15.39 6.89 15.39 15.39v177.7c0 8.499-6.89 15.39-15.39 15.39h-125.9c-8.498-.003-15.39-6.892-15.39-15.39zm144.6-264.1c0 7.75-6.283 14.03-14.03 14.03h-41.87c-7.751 0-14.03-6.282-14.03-14.03v-39.17c0-7.751 6.282-14.03 14.03-14.03h41.87c7.75 0 14.03 6.283 14.03 14.03zm-67.3-65.43c0 7.751-6.283 14.03-14.03 14.03h-41.87c-7.75 0-14.03-6.283-14.03-14.03v-39.17c0-7.75 6.283-14.03 14.03-14.03h41.87c7.751 0 14.03 6.283 14.03 14.03zm-68.87 90.62c0-7.75 6.283-14.03 14.03-14.03h41.87c7.751 0 14.03 6.282 14.03 14.03v20.48h-62.94c-2.385 0-4.72.218-6.993.613zm80.26-207.4h41.87c7.75 0 14.03 6.283 14.03 14.03v39.17c0 7.751-6.283 14.03-14.03 14.03h-41.87c-7.751 0-14.03-6.283-14.03-14.03v-39.17c-.001-7.75 6.281-14.03 14.03-14.03zm-83.97-52.23c0-7.75 6.283-14.03 14.03-14.03h41.87c7.75 0 14.03 6.283 14.03 14.03v39.17c0 7.75-6.283 14.03-14.03 14.03h-41.87c-7.751 0-14.03-6.283-14.03-14.03z"/><path d="m628.1 613.9h82.36c5.915 0 10.79-4.425 11.51-10.14.062-.483.104-.973.104-1.473v-49.11c0-6.415-5.2-11.62-11.62-11.62h-82.36c-6.415 0-11.62 5.2-11.62 11.62v49.11c0 .5.042.988.104 1.473.723 5.719 5.595 10.14 11.51 10.14z"/></g></g></g></g><path d="m576.1 558.2-16.21-65.61c-.3502-1.418.5701-2.828 1.844-2.828h96.28c.8716 0 1.634.6795 1.855 1.654l15.52 68.31z" fill="#c69f00" stroke-width=".3441"/><path d="m659.9 556.1 16.1-37.25c.325-.7519.9893-1.226 1.716-1.226h30.57c1.426 0 2.353 1.736 1.716 3.212l-15.24 35.27h-34.84z" fill="#ebbd00" stroke-width=".3441"/><g transform="matrix(-.3454 .3941 -.3707 -.3247 686.4 535.9)" stroke-width="3.632"><path d="m38.34 62.61-34.38-25.06s3.438-7.154 3.438-14.32c0-7.162-3.438-14.33-3.438-14.33l34.38 25.06zm0 61.37-34.38-28.64s3.438-3.583 3.438-10.74c0-7.158-3.438-14.32-3.438-14.32l34.38 25.06zm0-30.69-34.38-28.64s3.438-3.583 3.438-10.74c0-7.158-3.438-14.32-3.438-14.32l34.38 25.06z" fill="#cfd8dc"/><path d="m40.48 101c-.753 0-1.513-.2724-2.145-.8401l-36.53-30.69c-1.485-1.327-1.723-3.74-.5364-5.393 1.183-1.653 3.352-1.922 4.831-.5984l36.53 30.69c1.485 1.327 1.723 3.74.5364 5.393-.6773.9436-1.678 1.438-2.685 1.438z" fill="#3f51b5"/><path d="m124.3 66.45h-89.39s3.438 6.682 3.438 16.29c0 9.605-3.438 14.4-3.438 14.4h89.39s3.438-3.836 3.438-15.34c0-11.51-3.438-15.34-3.438-15.34z" fill="#3f51b5"/><path d="m40.48 70.28c-.753 0-1.513-.2723-2.145-.84l-36.53-30.69c-1.485-1.327-1.723-3.74-.5364-5.393 1.183-1.653 3.352-1.926 4.831-.5984l36.53 30.69c1.485 1.327 1.723 3.74.5364 5.393-.6773.9436-1.678 1.438-2.685 1.438z" fill="#9c27b0"/><path d="m124.3 35.76h-89.39s3.438 6.682 3.438 16.29-3.438 14.4-3.438 14.4h89.39s3.438-3.836 3.438-15.34c0-11.51-3.438-15.34-3.438-15.34z" fill="#9c27b0"/><path d="m43.87 127.8c0-1.124-.3885-2.24-1.238-2.996l-36.53-30.69c-1.478-1.323-3.648-1.051-4.831.5984-1.186 1.657-.9455 4.07.5364 5.393l32.96 27.69z" fill="#8bc34a"/><path d="m124.3 97.13h-89.39s3.438 6.682 3.438 16.29-3.438 14.4-3.438 14.4h89.39s3.438-3.836 3.438-15.34-3.438-15.34-3.438-15.34z" fill="#8bc34a"/><path d="m124.3 97.13h-89.39s1.516 2.9 2.52 7.672h89.51c-1.014-5.527-2.641-7.672-2.641-7.672z" fill="#689f38"/><path d="m124.3 66.45h-89.39s1.516 2.9 2.52 7.672h89.51c-1.014-5.527-2.641-7.672-2.641-7.672z" fill="#303f9f"/><path d="m52.21 93.3c.3782-1.726 1.028-5.29 1.028-9.59s-.6498-7.863-1.028-9.59h-6.993c.0091.03452 1.145 4.86 1.145 9.59s-1.138 9.563-1.145 9.59zm0-30.69c.3782-1.726 1.028-5.29 1.028-9.59s-.6498-7.863-1.028-9.59h-6.993c.0091.03452 1.145 4.86 1.145 9.59s-1.138 9.563-1.145 9.59zm0 61.37c.3782-1.726 1.028-5.29 1.028-9.59s-.6498-7.863-1.028-9.59h-6.993c.0091.0346 1.145 4.86 1.145 9.59s-1.138 9.563-1.145 9.59z" fill="#fdd835"/><path d="m126.9 43.43c-1.014-5.527-2.641-7.672-2.641-7.672l-38.36-32.26s-2.685-2.267-6.34-2.267h-75.64l.06201.06905c-1.083-.02302-2.159.4565-2.843 1.511-1.117 1.711-.777 4.112.7564 5.355l33.48 28.65c.5536 1.247 1.437 3.529 2.087 6.605z" fill="#7b1fa2"/></g><g transform="translate(28)" stroke-width=".3545"><path transform="matrix(.973 0 0 .9673 755.1 308.6)" d="m-218 260.8-17.77-41.37c-.655-1.525.2979-3.32 1.763-3.32h31.38c.7532 0 1.44.4993 1.771 1.287l18.2 43.39z" fill="#e9bb00"/><path transform="matrix(.973 0 0 .9673 755.1 308.6)" d="m-222 333.1-.9044-84.18h49.57l-14.16 95.2-29.73-5.456c-2.637 0-4.744-2.489-4.776-5.56z" fill="#ddb100"/><path transform="matrix(.973 0 0 .9673 755.1 308.6)" d="m-187.5 344.3v-95.2h99.5v89.64c0 3.07-2.138 5.557-4.776 5.557z" fill="#fbca00"/></g><rect x="610.5" y="577.2" width="70.75" height="34.16" fill="#9c27b0" stroke-width=".2684"/><g transform="translate(28)" fill="#fff" stroke-width=".2004"><path transform="matrix(1.328,0,0,1.351,804,248.4)" d="m-151.1 258.3h-2.062v3.079h-2.62v-10.94h4.608c2.723 0 4.283 1.375 4.283 3.812 0 1.672-.6625 2.874-1.869 3.517l2.163 3.61h-2.974zm-.0735-2.189c1.134 0 1.796-.6096 1.796-1.766 0-1.141-.6623-1.719-1.796-1.719h-1.988v3.486h1.988z"/><path transform="matrix(1.328,0,0,1.351,804,248.4)" d="m-142.4 259.4-.7506 2.016h-2.694l4.446-10.94h2.694l4.343 10.94h-2.797l-.7358-2.016zm2.266-6.158-1.502 4.047h2.974z"/><path transform="matrix(1.328,0,0,1.351,804,248.4)" d="m-128.4 258.3h-2.062v3.079h-2.62v-10.94h4.608c2.723 0 4.283 1.375 4.283 3.812 0 1.672-.6625 2.874-1.869 3.517l2.163 3.61h-2.974zm-.0735-2.189c1.133 0 1.796-.6096 1.796-1.766 0-1.141-.6627-1.719-1.796-1.719h-1.988v3.486h1.988z"/></g><path d="m688.2 549.6v86.71c0 2.969-2.08 5.375-4.648 5.375h9.223c2.566 0 4.648-2.407 4.648-5.375v-86.71z" fill="#ddb100" stroke-width=".344"/><g transform="matrix(4.347,0,0,4.29,-24.95,-124)">
<path d="m98.73 161.2c0 6.25 5.07 11.32 11.32 11.32s11.31-5.07 11.31-11.32-5.06-11.32-11.31-11.32c-6.25.01-11.32 5.08-11.32 11.32z" fill="#fff"/></g><path d="m251.4 451.5c0 26.34 21.65 47.66 48.34 47.66s48.3-21.32 48.3-47.66-21.65-47.66-48.3-47.66c-26.69 0-48.34 21.36-48.34 47.66z" fill="#fff" stroke-width="4.318"/><g transform="matrix(.1153 -.01719 .0157 .1135 266.5 427.5)" fill="#404c8f"><g fill="#404c8f"><path d="m480 64h-448c-17.67 0-32 14.33-32 32v320c0 17.67 14.33 32 32 32h448c17.67 0 32-14.33 32-32v-320c0-17.67-14.33-32-32-32zm-32 64v190.4l-83.5-104.4c-2.984-3.734-7.484-5.938-12.27-6.008-4.75-.102-9.344 1.992-12.42 5.641l-88.5 104.1-48.91-41.91c-5.656-4.836-13.88-5.148-19.88-.758l-118.5 86.93v-234z"/><circle cx="160" cy="192" r="32"/></g></g><g transform="matrix(4.35,0,0,4.371,44.79,-123.2)" fill="#e0e3ea">
<g transform="matrix(1.003 0 0 1 -.3967 0)" fill="#e0e3ea">
<path d="m173.2 52.94-.0251-4.62-73.01.02829.008 4.592z" fill="#e0e3ea"/>
</g></g><g transform="translate(28)" fill="#404c8f"><g transform="matrix(4.35,0,0,4.371,274,-158.6)" fill="#404c8f">
<path d="m106.1 59.68c-.48 0-.87-.39-.87-.87s.39-.87.87-.87.87.39.87.87c-.01.48-.39.87-.87.87z"/>

<path d="m108.6 59.68c-.48 0-.87-.39-.87-.87s.39-.87.87-.87.87.39.87.87-.39.87-.87.87z"/>

<path d="m111.1 59.68c-.48 0-.87-.39-.87-.87s.39-.87.87-.87.87.39.87.87-.39.87-.87.87z"/>
</g></g><g transform="matrix(3.834 0 0 3.751 116.2 -72.59)"><path id="WinRAR" d="m112.9 74.03-2.397-9.719h1.226l1.374 6.371c0.1478 0.6674 0.2752 1.33 0.3818 1.989 0.23-1.039 0.3656-1.637 0.4066-1.796l1.719-6.563h1.441l1.293 4.919c0.3243 1.22 0.5585 2.366 0.7023 3.441 0.115-0.6143 0.2649-1.319 0.4498-2.115l1.417-6.245h1.201l-2.475 9.719h-1.152l-1.903-7.404c-0.1602-0.6187-0.2547-0.9987-0.2833-1.14-0.0945 0.4464-0.1827 0.8264-0.2649 1.14l-1.916 7.404zm10.19-8.346v-1.372h1.109v1.372zm0 8.346v-7.04h1.109v7.04zm2.797 0v-7.04h0.9978v1.001c0.4805-0.7735 1.174-1.16 2.082-1.16 0.3942 0 0.7567 0.07623 1.087 0.2287 0.3305 0.1525 0.578 0.3525 0.7424 0.6001 0.1643 0.2476 0.2792 0.5413 0.3448 0.8817 0.0411 0.221 0.0616 0.6078 0.0616 1.16v4.329h-1.109v-4.283c0-0.4861-0.0431-0.8497-0.1293-1.091-0.0862-0.2408-0.2392-0.4331-0.4588-0.5768-0.2197-0.1436-0.4774-0.2155-0.7731-0.2155-0.4722 0-0.8797 0.1613-1.223 0.484-0.3429 0.3226-0.5144 0.9348-0.5144 1.836v3.844z" stroke-width=".2358"/><path id="Combined-Shape" d="m135.1 64.31h5.206c0.8985 0 1.556 0.2497 1.972 0.749 0.4161 0.4994 0.6241 1.1 0.6241 1.803 0 0.7602-0.2205 1.424-0.6615 1.992-0.4409 0.5679-1.146 0.9313-2.115 1.091 0.5742 0.4949 1.261 1.856 2.059 4.084h-2.99c-0.2497-0.7026-0.544-1.471-0.883-2.304s-0.5938-1.316-0.7645-1.448c-0.1706-0.1326-0.3765-0.1989-0.6179-0.1989h-0.1498l-0.78 3.951h-2.84zm2.047 3.951h0.5368c0.8985 0 1.48-0.0442 1.744-0.1326 0.2642-0.0884 0.4607-0.2376 0.5897-0.4474 0.129-0.2099 0.1934-0.4122 0.1934-0.6066 0-0.2476-0.0769-0.442-0.2309-0.5833-0.1539-0.1414-0.4889-0.2121-1.005-0.2121h-1.435zm14.86 5.768h-2.771l-0.1248-1.591h-2.983l-0.7113 1.591h-3.045l5.168-9.719h3.014zm-3.076-3.653-0.2809-3.541h-0.025l-1.573 3.541zm6.052-6.066h5.206c0.8986 0 1.556 0.2497 1.972 0.749 0.4161 0.4994 0.6241 1.1 0.6241 1.803 0 0.7602-0.2205 1.424-0.6615 1.992-0.4409 0.5679-1.146 0.9313-2.115 1.091 0.5742 0.4949 1.261 1.856 2.059 4.084h-2.99c-0.2497-0.7026-0.5439-1.471-0.883-2.304s-0.5938-1.316-0.7645-1.448c-0.1706-0.1326-0.3765-0.1989-0.6179-0.1989h-0.1498l-0.78 3.951h-2.84zm2.047 3.951h0.5368c0.8985 0 1.48-0.0442 1.744-0.1326 0.2642-0.0884 0.4607-0.2376 0.5897-0.4474 0.129-0.2099 0.1934-0.4122 0.1934-0.6066 0-0.2476-0.077-0.442-0.2309-0.5833-0.1539-0.1414-0.4888-0.2121-1.005-0.2121h-1.435z" fill="#404c8f" stroke-width=".2358"/><g transform="matrix(.9588 0 0 1.043 -4.173 0)" aria-label="Скачать бесплатно WinRaR"><g stroke-width=".2265"><path d="m107.8 44.59q-0.073 0.03185-0.1327 0.05973-0.0584 0.02787-0.154 0.0584-0.081 0.02522-0.1765 0.04247-0.0942 0.01858-0.2084 0.01858-0.215 0-0.3915-0.05973-0.1752-0.06105-0.3053-0.1898-0.1274-0.1261-0.1991-0.3199-0.0717-0.1951-0.0717-0.4526 0-0.2442 0.069-0.4367 0.069-0.1924 0.1991-0.3252 0.1261-0.1287 0.3039-0.1964 0.1792-0.06769 0.3968-0.06769 0.1593 0 0.3172 0.03849 0.1593 0.03849 0.353 0.1354v0.3119h-0.0199q-0.1632-0.1367-0.3238-0.1991-0.1606-0.06238-0.3438-0.06238-0.15 0-0.2708 0.04911-0.1194 0.04778-0.2137 0.15-0.0916 0.09954-0.1433 0.2522-0.0504 0.1513-0.0504 0.3504 0 0.2084 0.0558 0.3584 0.0571 0.15 0.146 0.2442 0.0929 0.09822 0.2163 0.146 0.1248 0.04645 0.2628 0.04645 0.1898 0 0.3557-0.06503 0.1659-0.06504 0.3106-0.1951h0.0186z"/><path d="m109.5 44.73h-0.3265l-0.6158-0.6796h-0.1354v0.6796h-0.2495v-1.483h0.2495v0.6397q0.1234 0 0.1991-0.0438 0.0757-0.04513 0.1287-0.1433 0.0186-0.03584 0.0358-0.07565 0.0186-0.04115 0.0358-0.07831 0.069-0.15 0.1725-0.2243 0.1035-0.07433 0.2973-0.07433h0.1141v0.215h-0.1102q-0.1048 0-0.1646 0.04513-0.0584 0.0438-0.1062 0.1553-0.0531 0.1248-0.1128 0.1871-0.0584 0.06105-0.1248 0.09291z"/><path d="m110.9 44.73h-0.2482v-0.1579q-0.0332 0.02256-0.0902 0.06371-0.0558 0.03982-0.1088 0.06371-0.0624 0.03053-0.1433 0.05044-0.081 0.02124-0.1898 0.02124-0.2004 0-0.3398-0.1327t-0.1394-0.3384q0-0.1686 0.0717-0.2721 0.073-0.1049 0.207-0.1646 0.1354-0.05973 0.3252-0.08096 0.1898-0.02124 0.4075-0.03185v-0.03849q0-0.08494-0.0305-0.1407-0.0292-0.05574-0.0849-0.0876-0.0531-0.03053-0.1274-0.04114-0.0743-0.01062-0.1553-0.01062-0.0982 0-0.219 0.02654-0.1208 0.02522-0.2495 0.07433h-0.0133v-0.2535q0.073-0.01991 0.211-0.0438t0.2721-0.02389q0.1566 0 0.2721 0.02654 0.1168 0.02522 0.2017 0.0876 0.0836 0.06105 0.1274 0.1579 0.0438 0.09689 0.0438 0.2402zm-0.2482-0.365v-0.4128q-0.1141 0.0066-0.2694 0.01991-0.154 0.01327-0.2442 0.03849-0.1075 0.03053-0.1739 0.09556-0.0664 0.06371-0.0664 0.1765 0 0.1274 0.077 0.1925 0.077 0.06371 0.2349 0.06371 0.1314 0 0.2402-0.05044 0.1088-0.05176 0.2017-0.1234z"/><path d="m112.6 44.73h-0.2495v-0.5694q-0.1208 0.03716-0.2309 0.05973-0.1102 0.02256-0.2402 0.02256-0.2389 0-0.365-0.1168-0.1261-0.1181-0.1261-0.3398v-0.5389h0.2495v0.4114q0 0.08494 0.0106 0.1526 0.0106 0.06636 0.0451 0.1155 0.0345 0.04778 0.0969 0.073t0.1739 0.02522q0.0916 0 0.1991-0.01725 0.1075-0.01858 0.1871-0.04247v-0.718h0.2495z"/><path d="m114.2 44.73h-0.2482v-0.1579q-0.0332 0.02256-0.0903 0.06371-0.0557 0.03982-0.1088 0.06371-0.0624 0.03053-0.1433 0.05044-0.081 0.02124-0.1898 0.02124-0.2004 0-0.3398-0.1327t-0.1394-0.3384q0-0.1686 0.0717-0.2721 0.073-0.1049 0.207-0.1646 0.1354-0.05973 0.3252-0.08096 0.1898-0.02124 0.4075-0.03185v-0.03849q0-0.08494-0.0305-0.1407-0.0292-0.05574-0.0849-0.0876-0.0531-0.03053-0.1274-0.04114-0.0743-0.01062-0.1553-0.01062-0.0982 0-0.219 0.02654-0.1208 0.02522-0.2495 0.07433h-0.0133v-0.2535q0.073-0.01991 0.211-0.0438t0.2721-0.02389q0.1566 0 0.2721 0.02654 0.1168 0.02522 0.2017 0.0876 0.0836 0.06105 0.1274 0.1579 0.0438 0.09689 0.0438 0.2402zm-0.2482-0.365v-0.4128q-0.1141 0.0066-0.2694 0.01991-0.154 0.01327-0.2442 0.03849-0.1075 0.03053-0.1739 0.09556-0.0664 0.06371-0.0664 0.1765 0 0.1274 0.077 0.1925 0.077 0.06371 0.2349 0.06371 0.1314 0 0.2402-0.05044 0.1088-0.05176 0.2017-0.1234z"/><path d="m115.8 43.47h-0.5362v1.264h-0.2495v-1.264h-0.5362v-0.219h1.322z"/><path d="m117 44.28q0-0.06769-0.0239-0.1181-0.0226-0.05176-0.0757-0.08362-0.0558-0.03318-0.1274-0.03982-0.0703-0.0066-0.2031-0.0066h-0.2469v0.5044h0.2416q0.1327 0 0.2057-0.01062 0.073-0.01195 0.1261-0.0438 0.0544-0.03451 0.0783-0.08096 0.0252-0.04778 0.0252-0.1208zm0.2575-4e-3q0 0.1075-0.0438 0.1951-0.0425 0.0876-0.1168 0.142-0.0876 0.06636-0.1871 0.09423-0.0996 0.02787-0.2562 0.02787h-0.58v-1.483h0.2495v0.5774h0.3371q0.1672 0 0.2588 0.01725 0.0929 0.01725 0.1845 0.08494 0.077 0.05707 0.1155 0.146t0.0385 0.1978z"/><path d="m119.7 43.47q0.0929 0.09291 0.1407 0.2256 0.0478 0.1314 0.0478 0.3092 0 0.3318-0.1991 0.5508t-0.4898 0.219q-0.1433 0-0.2641-0.04778-0.1208-0.04911-0.2057-0.15-0.1062-0.1261-0.1593-0.3172-0.0518-0.1924-0.0518-0.4685 0-0.09954 9e-3 -0.2017 9e-3 -0.1035 0.0425-0.2469 0.0265-0.1234 0.077-0.2376 0.0518-0.1141 0.1221-0.1845 0.0956-0.09689 0.2508-0.1553 0.1566-0.05973 0.4141-0.08229 0.1048-0.0093 0.1951-0.0146 0.0902-0.0066 0.1619-0.01194v0.2296q-0.0876 0.0053-0.1739 0.01062-0.0849 0.0053-0.1699 0.01327-0.1699 0.0146-0.3079 0.05574-0.1367 0.04115-0.2004 0.1062-0.0703 0.07034-0.1062 0.1845-0.0345 0.1128-0.0451 0.215 0.0995-0.07167 0.2177-0.1195 0.1194-0.04911 0.2535-0.04911 0.1248 0 0.2402 0.04114 0.1155 0.04115 0.2004 0.1261zm-0.065 0.5495q0-0.2455-0.1181-0.3663-0.1181-0.1221-0.3119-0.1221-0.1155 0-0.2216 0.03716-0.1062 0.03583-0.2017 0.09689-3e-3 0.03318-5e-3 0.07831-1e-3 0.0438-1e-3 0.08096 0 0.2309 0.0385 0.3743 0.0385 0.1433 0.1088 0.2283 0.0611 0.07167 0.1327 0.1022 0.0717 0.0292 0.154 0.0292 0.2004 0 0.3132-0.1447t0.1128-0.3942z"/><path d="m121.5 44.02h-1.092q0 0.1367 0.0411 0.2389 0.0411 0.1009 0.1128 0.1659 0.069 0.06371 0.1633 0.09556 0.0956 0.03185 0.2097 0.03185 0.1513 0 0.3039-0.05973 0.154-0.06105 0.219-0.1195h0.0133v0.2721q-0.1261 0.05309-0.2575 0.08893-0.1314 0.03583-0.2761 0.03583-0.369 0-0.576-0.1991-0.207-0.2004-0.207-0.5681 0-0.3637 0.1978-0.5774 0.1991-0.2137 0.5229-0.2137 0.3 0 0.4619 0.1752 0.1632 0.1752 0.1632 0.4977zm-0.2429-0.1911q-1e-3 -0.1964-0.0995-0.3039-0.0969-0.1075-0.296-0.1075-0.2004 0-0.3199 0.1181-0.1181 0.1181-0.1341 0.2933z"/><path d="m123 44.64q-0.1526 0.07167-0.2628 0.09822-0.1088 0.02787-0.2177 0.02787-0.1619 0-0.2973-0.04645-0.1354-0.04778-0.2323-0.1433-0.0969-0.09556-0.1513-0.2416-0.0531-0.146-0.0531-0.3411 0-0.3544 0.1964-0.5654 0.1964-0.2124 0.5375-0.2124 0.1287 0 0.2522 0.03583 0.1248 0.03584 0.2283 0.0876v0.2774h-0.0146q-0.1234-0.09423-0.2442-0.1394-0.1195-0.04513-0.2323-0.04513-0.2216 0-0.3438 0.1487-0.1208 0.1487-0.1208 0.4128t0.1208 0.4101 0.3438 0.146q0.0783 0 0.1553-0.01991 0.0783-0.01991 0.142-0.05176 0.0504-0.02522 0.1035-0.05973 0.0544-0.03584 0.0756-0.05309h0.0146z"/><path d="m124.6 44.73h-0.2495v-1.268h-0.7419v1.268h-0.2495v-1.483h1.241z"/><path d="m126.2 44.73h-0.2495v-1.273h-0.5535q-4e-3 0.1102-8e-3 0.2124t-8e-3 0.1845q-9e-3 0.2216-0.0305 0.3544-0.0212 0.1314-0.0557 0.219-0.0319 0.08229-0.0717 0.1341-0.0385 0.05044-0.0836 0.09158-0.0451 0.03982-0.1009 0.05973-0.0544 0.01991-0.1194 0.01991-0.0226 0-0.0664-0.0013-0.0425-0.0013-0.0557-0.0013v-0.2177h0.0133q0.0106 0 0.0305 0.0013t0.0332 0.0013q0.0318 0 0.065-0.0093 0.0345-0.0093 0.0584-0.03451 0.0677-0.06636 0.1088-0.2243 0.0411-0.1579 0.0544-0.4566 5e-3 -0.1088 9e-3 -0.2575 5e-3 -0.15 9e-3 -0.2854h1.021z"/><path d="m127.9 44.73h-0.2482v-0.1579q-0.0332 0.02256-0.0902 0.06371-0.0558 0.03982-0.1088 0.06371-0.0624 0.03053-0.1433 0.05044-0.081 0.02124-0.1898 0.02124-0.2004 0-0.3398-0.1327t-0.1394-0.3384q0-0.1686 0.0717-0.2721 0.073-0.1049 0.207-0.1646 0.1354-0.05973 0.3252-0.08096 0.1898-0.02124 0.4075-0.03185v-0.03849q0-0.08494-0.0305-0.1407-0.0292-0.05574-0.0849-0.0876-0.0531-0.03053-0.1274-0.04114-0.0743-0.01062-0.1553-0.01062-0.0982 0-0.219 0.02654-0.1208 0.02522-0.2495 0.07433h-0.0133v-0.2535q0.073-0.01991 0.211-0.0438t0.2721-0.02389q0.1566 0 0.2721 0.02654 0.1168 0.02522 0.2017 0.0876 0.0836 0.06105 0.1274 0.1579 0.0438 0.09689 0.0438 0.2402zm-0.2482-0.365v-0.4128q-0.1141 0.0066-0.2694 0.01991-0.154 0.01327-0.2442 0.03849-0.1075 0.03053-0.1739 0.09556-0.0664 0.06371-0.0664 0.1765 0 0.1274 0.077 0.1925 0.077 0.06371 0.2349 0.06371 0.1314 0 0.2402-0.05044 0.1088-0.05176 0.2017-0.1234z"/><path d="m129.5 43.47h-0.5362v1.264h-0.2495v-1.264h-0.5362v-0.219h1.322z"/><path d="m131 44.73h-0.2495v-0.6676h-0.7419v0.6676h-0.2495v-1.483h0.2495v0.5999h0.7419v-0.5999h0.2495z"/><path d="m132.7 43.99q0 0.3623-0.1858 0.572t-0.4977 0.2097q-0.3146 0-0.5004-0.2097-0.1845-0.2097-0.1845-0.572t0.1845-0.572q0.1858-0.211 0.5004-0.211 0.3119 0 0.4977 0.211 0.1858 0.2097 0.1858 0.572zm-0.2575 0q0-0.288-0.1128-0.4274-0.1128-0.1407-0.3132-0.1407-0.2031 0-0.3159 0.1407-0.1115 0.1394-0.1115 0.4274 0 0.2787 0.1128 0.4234 0.1128 0.1433 0.3146 0.1433 0.1991 0 0.3119-0.142 0.1141-0.1433 0.1141-0.4247z"/></g></g><g fill="#fff"><path class="st5" d="m224.3 30.11c1.896 0 3.36-1.565 3.36-3.391 0-1.913-1.551-3.391-3.36-3.391s-3.36 1.478-3.36 3.305c0 1.913 1.551 3.478 3.36 3.478zm0-5.304c1.034 0 1.809.7827 1.809 1.826 0 1.044-.7755 1.826-1.809 1.826s-1.809-.7827-1.809-1.826c0-.9566.8616-1.826 1.809-1.826z" opacity=".5" stroke-width=".8326"/><path class="st5" d="m264.5 54.88c1.467 0 2.601-1.177 2.601-2.55 0-1.439-1.2-2.55-2.601-2.55-1.4 0-2.601 1.111-2.601 2.485 0 1.439 1.2 2.616 2.601 2.616zm0-3.988c.8002 0 1.4.5885 1.4 1.373 0 .7849-.6002 1.373-1.4 1.373s-1.4-.5885-1.4-1.373c0-.7194.6669-1.373 1.4-1.373z" opacity=".5" stroke-width=".6352"/><path class="st5" d="m45.74 30.11c-1.896 0-3.36-1.565-3.36-3.391 0-1.913 1.551-3.391 3.36-3.391s3.36 1.478 3.36 3.305c0 1.913-1.551 3.478-3.36 3.478zm0-5.304c-1.034 0-1.809.7827-1.809 1.826 0 1.044.7755 1.826 1.809 1.826 1.033 0 1.809-.7827 1.809-1.826 0-.9566-.8616-1.826-1.809-1.826z" fill="#fff" opacity=".5" stroke-width=".8326"/><path class="st5" d="m5.544 54.88c-1.467 0-2.601-1.177-2.601-2.55 0-1.439 1.2-2.55 2.601-2.55 1.4 0 2.601 1.111 2.601 2.485 0 1.439-1.2 2.616-2.601 2.616zm0-3.988c-.8002 0-1.4.5885-1.4 1.373 0 .7849.6002 1.373 1.4 1.373s1.4-.5885 1.4-1.373c0-.7194-.6669-1.373-1.4-1.373z" fill="#fff" opacity=".5" stroke-width=".6352"/><g fill="#000"><path class="st5" d="m82.14 26.78c0-.3346-.3384-.6691-.8459-.7528l-1.607-.2509c-.4229-.08328-.9304-.5018-.9304-.9201l-.2538-1.589c-.0849-.4182-.4229-.8366-.7613-.8366s-.6767.3346-.7613.8366l-.1692 1.589c-.0849.4182-.5075.9201-.9305.9201l-1.607.2509c-.4229.08328-.8459.4182-.8459.7528s.3383.6691.8459.7528l1.607.2509c.4229.08328.9305.5018.9305.9201l.2538 1.589c.0849.4182.4229.8366.7613.8366s.6767-.3346.7613-.8366l.2538-1.757c.0849-.4182.5075-.8366.9305-.9201l1.523-.08328c.5075-.1672.8459-.5018.8459-.7528z" opacity=".5" stroke-width=".8091"/><path class="st5" d="m33.24 39.16c0-.2898-.2843-.5795-.7107-.652l-1.35-.2173c-.3553-.07212-.7818-.4346-.7818-.7969l-.2132-1.376c-.0714-.3622-.3553-.7246-.6396-.7246s-.5685.2898-.6396.7246l-.1421 1.376c-.0714.3622-.4264.7969-.7818.7969l-1.35.2173c-.3553.07213-.7107.3622-.7107.652s.2843.5795.7107.652l1.35.2173c.3553.07212.7818.4346.7818.7969l.2132 1.376c.0714.3622.3553.7246.6396.7246s.5686-.2898.6396-.7246l.2132-1.522c.0714-.3622.4264-.7246.7817-.7969l1.279-.07212c.4264-.1448.7107-.4346.7107-.652z" opacity=".5" stroke-width=".6902"/><path class="st5" d="m-.05562 31.18c0-.3346-.3383-.6691-.8459-.7528l-1.607-.2509c-.4229-.08328-.9304-.5018-.9304-.9201l-.2538-1.589c-.0849-.4182-.4229-.8366-.7613-.8366s-.6767.3346-.7613.8366l-.1692 1.589c-.085.4182-.5075.9201-.9304.9201l-1.607.2509c-.4229.08328-.8459.4182-.8459.7528s.3384.6691.8459.7528l1.607.2509c.4229.08328.9304.5018.9304.9201l.2538 1.589c.085.4182.4229.8366.7613.8366s.6767-.3346.7613-.8366l.2538-1.757c.085-.4182.5075-.8366.9304-.9201l1.523-.08328c.5075-.1672.8459-.5018.8459-.7528z" opacity=".5" stroke-width=".8091"/></g><path class="st5" d="m-20.56 53.98c0-.2251-.2105-.4501-.5263-.5064l-1-.1688c-.2632-.05602-.579-.3376-.579-.619l-.1579-1.069c-.0529-.2813-.2632-.5628-.4737-.5628s-.4211.2251-.4737.5628l-.1053 1.069c-.0529.2813-.3158.619-.579.619l-1 .1688c-.2632.05602-.5263.2813-.5263.5064s.2105.4501.5263.5064l1 .1688c.2632.05602.579.3376.579.619l.1579 1.069c.0529.2813.2632.5628.4737.5628s.4211-.2251.4737-.5628l.1579-1.182c.0529-.2813.3158-.5628.579-.619l.9474-.05602c.3158-.1125.5263-.3376.5263-.5064z" opacity=".5" stroke-width=".5235"/></g><path class="st5" d="m187.9 26.78c0-.3346.3384-.6691.8459-.7528l1.607-.2509c.4229-.08328.9304-.5018.9304-.9201l.2538-1.589c.0849-.4182.4229-.8366.7613-.8366s.6767.3346.7613.8366l.1692 1.589c.0849.4182.5075.9201.9305.9201l1.607.2509c.4229.08328.8459.4182.8459.7528s-.3383.6691-.8459.7528l-1.607.2509c-.4229.08328-.9305.5018-.9305.9201l-.2538 1.589c-.0849.4182-.4229.8366-.7613.8366s-.6767-.3346-.7613-.8366l-.2538-1.757c-.0849-.4182-.5075-.8366-.9305-.9201l-1.523-.08328c-.5075-.1672-.8459-.5018-.8459-.7528z" opacity=".5" stroke-width=".8091"/><path class="st5" d="m236.8 39.16c0-.2898.2843-.5795.7107-.652l1.35-.2173c.3553-.07212.7818-.4346.7818-.7969l.2132-1.376c.0714-.3622.3553-.7246.6396-.7246s.5685.2898.6396.7246l.1421 1.376c.0714.3622.4264.7969.7818.7969l1.35.2173c.3553.07213.7107.3622.7107.652s-.2843.5795-.7107.652l-1.35.2173c-.3553.07212-.7818.4346-.7818.7969l-.2132 1.376c-.0714.3622-.3553.7246-.6396.7246s-.5686-.2898-.6396-.7246l-.2132-1.522c-.0714-.3622-.4264-.7246-.7817-.7969l-1.279-.07212c-.4264-.1448-.7107-.4346-.7107-.652z" opacity=".5" stroke-width=".6902"/><path class="st5" d="m270.1 31.18c0-.3346.3383-.6691.8459-.7528l1.607-.2509c.4229-.08328.9304-.5018.9304-.9201l.2538-1.589c.0849-.4182.4229-.8366.7613-.8366s.6767.3346.7613.8366l.1692 1.589c.085.4182.5075.9201.9304.9201l1.607.2509c.4229.08328.8459.4182.8459.7528s-.3384.6691-.8459.7528l-1.607.2509c-.4229.08328-.9304.5018-.9304.9201l-.2538 1.589c-.085.4182-.4229.8366-.7613.8366s-.6767-.3346-.7613-.8366l-.2538-1.757c-.085-.4182-.5075-.8366-.9304-.9201l-1.523-.08328c-.5075-.1672-.8459-.5018-.8459-.7528z" opacity=".5" stroke-width=".8091"/><path class="st5" d="m290.6 53.98c0-.2251.2105-.4501.5263-.5064l1-.1688c.2632-.05602.579-.3376.579-.619l.1579-1.069c.0529-.2813.2632-.5628.4737-.5628s.4211.2251.4737.5628l.1053 1.069c.0529.2813.3158.619.579.619l1 .1688c.2632.05602.5263.2813.5263.5064s-.2105.4501-.5263.5064l-1 .1688c-.2632.05602-.579.3376-.579.619l-.1579 1.069c-.0529.2813-.2632.5628-.4737.5628s-.4211-.2251-.4737-.5628l-.1579-1.182c-.0529-.2813-.3158-.5628-.579-.619l-.9474-.05602c-.3158-.1125-.5263-.3376-.5263-.5064z" fill="#fff" opacity=".5" stroke-width=".5235"/><path d="m245.3 56.33c19.18-5.444 36.41 22.56 14.86 39.93" fill="none" stroke="#fff" stroke-dasharray="3.5861822, 3.5861822" stroke-linecap="round" stroke-linejoin="round" stroke-width=".8965"/></g><g transform="matrix(6.244,0,0,6.103,-209.4,-335.3)">
<g transform="translate(-6.84,-3.168)" fill="#fff">
<g fill="#fff">
<g fill="#fff">
<g fill="#fff">
<g fill="#fff">
<g fill="#fff">
<path d="m79.47 106.7c0 3.1-2.52 5.62-5.63 5.62s-5.63-2.52-5.63-5.62 2.52-5.62 5.63-5.62 5.63 2.52 5.63 5.62z" fill="#fff"/>
</g>
</g>
</g>
</g>
</g>
</g></g><g transform="translate(28)" fill="#182468"><g transform="matrix(.07044 -.009698 .007966 .06863 160.7 281.4)"><path d="m480 0h-448c-17.67 0-32 13.95-32 31.62v448c0 17.67 14.33 32.38 32 32.38h448c17.67 0 32-14.7 32-32.38v-448c0-17.67-14.33-31.62-32-31.62zm-368 448h-48v-48h48zm0-112h-48v-48h48zm0-112h-48v-48h48zm0-112h-48v-48h48zm112 207.6v-112l96 56zm224 128.4h-48v-48h48zm0-112h-48v-48h48zm0-112h-48v-48h48zm0-112h-48v-48h48z" fill="#404c8f"/></g><g transform="matrix(.202 .03078 -.03117 .2046 233 115.4)"><g fill="#404c8f">
<path d="m211 27.08c0 14.95 11.26 27.07 25.16 27.07h25.16l-50.31-54.15v27.08z"/>
<path d="m35.66 32.82c.1126 78.25-.2254 156.5.1694 234.8 1.324 18.44 19.73 31.58 37.54 29.45 52.82-.1126 105.6.2254 158.5-.1694 18.44-1.327 31.59-19.73 29.46-37.54v-198.6c-13.2-.7059-26.91 1.865-39.6-2.385-14.2-5.938-18.67-22.05-17.42-36.13v-22.2c-46.38.1126-92.78-.2258-139.2.1702-16.34 1.361-29.81 16.3-29.45 32.65zm69.39 141.1c8.214-1.701 15.6 4.162 15.16-8.489.3101-16.72-.6275-33.54.4814-50.18 4.332-7.619 14.55-6.083 21.97-8.609 18.1-3.62 36.12-8.024 54.27-11.17 7.157.1173 8.75 8.153 7.841 13.83-.1687 24.15.3418 48.33-.2632 72.46-3.325 24.19-43.25 30.63-52.41 7.264-5.775-18.49 15.96-33.39 32.75-29.84 6.715 2.538 2.297-8.793 3.563-13.07v-32.42l-51.84 10.94c-.1732 23.84.3505 47.7-.2692 71.52-3.325 24.18-43.25 30.64-52.41 7.274-4.843-14.03 8.071-27.14 21.16-29.52z"/>
<path d="m154.7 228.2h-1.819c-1.013 0-1.823 1.388-1.823 3.081v2.739c0 1.693.795 3.076 1.781 3.076h1.803c1.714 0 3.094-.373 4.14-1.108 1.03-.751 1.563-1.838 1.563-3.282 0-1.554-.486-2.642-1.476-3.387-.999-.745-2.388-1.119-4.169-1.119z"/>
</g></g><g transform="rotate(-16.12,2130,-1105)"><g fill="#404c8f">
<path d="m50.95 12.19-11.64-11.64c-.349-.349-.833-.55-1.328-.55h-29.02c-1.186 0-2.463.916-2.463 2.926v36.07h.633l16.74-14.24c.397-.337.986-.314 1.355.055l4.743 4.743 9.795-10.73c.181-.198.434-.315.703-.325.282-.009.53.09.725.274l10 9.5.311.297v-14.59c-.001-.766-.093-1.333-.551-1.791zm-34.45 11.45c-3.071 0-5.569-2.498-5.569-5.569s2.498-5.569 5.569-5.569 5.569 2.498 5.569 5.569-2.498 5.569-5.569 5.569zm31.61-9.638h-10.61v-10.61c0-.458.553-.687.877-.363l10.1 10.1c.324.324.095.877-.363.877z"/>
<path d="m31.38 30.97 4.807 4.807c.391.391.391 1.023 0 1.414s-1.023.391-1.414 0l-10.31-10.31-14.24 12.12h41.28v-7.636l-10.95-10.44z"/>
<path d="m20.82 49.06c.196-.068.376-.18.54-.335s.296-.371.396-.649.15-.622.15-1.032c0-.164-.023-.354-.068-.567-.046-.214-.139-.419-.28-.615-.142-.196-.34-.36-.595-.492s-.593-.198-1.012-.198h-1.23v3.992h1.504c.201-.002.399-.036.595-.104z"/>
<path d="m16.5 14.5c-1.968 0-3.569 1.601-3.569 3.569s1.601 3.569 3.569 3.569 3.569-1.601 3.569-3.569-1.601-3.569-3.569-3.569z"/>
<path d="m7.85 41h-1.35v15c0 1.009 1.22 2 2.463 2h40.07c1.243 0 2.463-.991 2.463-2v-15h-43zm27.45 5.679c.214-.643.51-1.178.889-1.606.378-.429.822-.754 1.333-.978.51-.224 1.062-.335 1.654-.335.547 0 1.057.091 1.531.273.474.183.897.456 1.271.82l-1.135 1.012c-.219-.265-.47-.456-.752-.574-.283-.118-.574-.178-.875-.178-.337 0-.659.063-.964.191-.306.128-.579.344-.82.649-.242.306-.431.699-.567 1.183s-.21 1.075-.219 1.777c.009.684.08 1.276.212 1.777s.314.911.547 1.23.497.556.793.711.608.232.937.232c.1 0 .234-.007.403-.021.168-.014.337-.036.506-.068.168-.032.33-.075.485-.13s.269-.132.342-.232v-2.488h-1.709v-1.121h3.336v3.896c-.21.265-.444.48-.704.649s-.533.308-.82.417-.584.189-.889.235c-.306.046-.608.068-.909.068-.602 0-1.155-.109-1.661-.328s-.948-.542-1.326-.971-.675-.966-.889-1.613-.321-1.395-.321-2.242.106-1.593.321-2.235zm-9.933-2.755h1.668l3.951 6.945v-6.945h1.668v10.08h-1.668l-3.951-6.945v6.945h-1.668zm-8.285 0h2.898c.428 0 .852.068 1.271.205s.795.342 1.128.615.602.604.807.991.308.822.308 1.306c0 .511-.087.973-.26 1.388s-.415.764-.725 1.046-.684.501-1.121.656-.921.232-1.449.232h-1.217v3.637h-1.641v-10.08z"/>
</g></g></g><path d="m469.8 514c18.66-21.87 93.1-68.25 136.6-11.44l10.68-6.472 2.691 36.14-30.56-18.75 10.8-6.507c-12.72-14.08-66.62-26.11-94.56 37.68-2.25-15.24-23.2-30.17-35.65-30.64z" fill="#fff"/><path d="m813.9 514c-18.66-21.87-93.08-68.25-136.6-11.45l-10.68-6.474-2.691 36.14 30.56-18.76-10.8-6.508c14.03-14.89 73.5-28.78 94.55 37.68 2.25-15.25 23.2-30.18 35.64-30.64z" fill="#fff" stroke-width="4.241"/><path d="m1103 330.6c39.07 40.78 48.12 131.6-72.3 134.6" fill="none" stroke="#fff" stroke-dasharray="13.59999998, 13.59999998" stroke-linecap="round" stroke-linejoin="round" stroke-width="3.4"/><path d="m1015 494.5c30.09 46.31-16.22 154.9-133.1 97.55" fill="none" stroke="#fff" stroke-dasharray="13.59999998, 13.59999998" stroke-linecap="round" stroke-linejoin="round" stroke-width="3.4"/><rect x="422.9" y="370.6" width="435.2" height="24.2" fill="#b3b2b4" style="paint-order:fill markers stroke"/><ellipse cx="444.3" cy="382.6" rx="10.31" ry="9.95" fill="#ece6d5" style="paint-order:fill markers stroke"/><g transform="translate(28)" fill="none" stroke="#fff" stroke-dasharray="13.59999998, 13.59999998" stroke-linecap="round" stroke-linejoin="round" stroke-width="3.4"><path d="m199 138.7c-73.53-20.42-139.6 84.62-56.99 149.8"/><path d="m152.7 330.6c-39.07 40.78-48.12 131.6 72.3 134.6"/><path d="m241.2 494.5c-30.09 46.31 16.22 154.9 133.1 97.55"/></g></svg>
