<svg width="120" height="120" version="1.1" viewBox="0 0 120 120" xmlns="http://www.w3.org/2000/svg">
 <g transform="matrix(.8976 0 0 .8992 1.759 1.501)">
  <g stroke-width=".6426">
   <g stroke-width=".6326">
    <path d="m26.85 38.89c0.05018 5.858-0.1015 11.73 0.07777 17.58 0.1797 2.601 2.781 3.216 4.905 2.933h88.53c2.982-0.3909 2.864-3.892 2.794-6.225-0.0397-5.346 0.0806-10.7-0.0624-16.04-0.1354-2.812-2.916-3.306-5.127-3.041h-88.33c-2.327 0.1594-2.941 2.877-2.786 4.795z" fill="#ff1a1b"/>
    <path d="m26.85 103.3c0.0402 5.23-0.08192 10.47 0.06385 15.69 0.07467 2.567 2.441 3.863 4.74 3.419h88.71c2.891-0.5502 2.873-3.998 2.79-6.344-0.0419-6.023 0.085-12.05-0.0655-18.07-0.0743-2.546-2.414-3.868-4.706-3.419h-88.74c-2.898 0.5487-2.876 4.002-2.794 6.353 1.79e-4 0.7907 3.57e-4 1.581 5.35e-4 2.372z" fill="#00b85d"/>
    <path d="m26.85 73.61c0.04687 4.603-0.0957 9.215 0.07486 13.81 0.09028 2.713 2.659 3.627 4.923 3.263h88.51c2.96-0.5265 2.862-4.07 2.791-6.443-0.0423-5.852 0.0855-11.71-0.0654-17.56-0.0545-2.744-2.632-3.726-4.929-3.345h-88.51c-2.959 0.5313-2.866 4.069-2.794 6.444-6.2e-4 1.26 0.0013 2.645-9.88e-4 3.829z" fill="#3580ff"/>
   </g>
   <g transform="matrix(.9875 0 0 .9815 .8522 1.615)">
    <path transform="matrix(1.105 0 0 1.107 -1.927 -1.613)" d="m95.03-0.7852c-0.511 0.00355-0.9905 0.04297-1.555 0.04297h-88.82c-1.553 0-3.438 0.4118-4.416 2.123-0.5148 0.9006-0.5898 1.95-0.375 2.891 0.2074 0.9082 0.6505 1.738 1.246 2.566l1.703 2.367 0.1289-0.1465 14.25 17.28c1.534 1.861 2.338 2.96 2.719 3.783 0.3912 0.8459 1.517 3.322 1.568 5.045 0.07748 2.677 0.021 5.424 0.01758 8.225-0.0027 2.553-2e-3 5.109 2e-3 7.66l-15.02-18.74c-0.6971-0.8463-1.735-1.377-2.846-1.377s-2.151 0.5314-2.848 1.377c-1.331 1.615-1.328 3.92-0.003906 5.535l0.02539 0.0293 0.001953 0.0039 13.96 16.93c1.396 1.694 2.85 3.347 4.004 4.984 1.178 1.68 2.546 4.533 2.664 6.795 0.03699 0.7058 0.05398 1.534 0.06055 2.502 0.0132 1.962-0.02148 3.962-0.02148 5.99 0 1.739 7e-3 3.474 0.01367 5.211l-14.88-18.58-0.02344-0.02734-0.03125-0.03125c-1.678-1.848-4.014-2.097-5.783-0.4512-1.82 1.637-1.232 3.977-0.2114 5.621l14.64 17.75c1.549 1.918 4.033 4.924 5.518 7.459 0.3875 0.7014 0.5548 1.327 0.6426 2.482 0.1648 2.197 0.1257 4.756 0.1426 7.436 0.01428 2.087 5e-3 4.127-0.0039 6.164l-15.01-18.73c-1.705-1.711-4.222-1.725-5.691 0-1.332 1.616-1.332 3.92-0.005859 5.537l0.03125 0.03906 0.003906 0.0039 15.35 18.61c0.6145 0.7458 0.9799 1.236 1.301 1.658 0.558 0.7424 1.076 1.411 1.869 2.047 2.915 2.722 5.786 3.176 8.988 3.307h84.1c2.474 0 3.789-1.276 5.135-3.208 0.8925-1.282 1.493-2.812 1.783-4.469 0.2743-1.202 0.4043-2.437 0.4043-3.58v-15.63c0-1.906 0.0736-3.502-0.5215-5.137-0.2434-0.6682-0.7235-1.188-1.189-1.713 0.4649-0.5111 0.9424-1.018 1.193-1.658 0.604-1.541 0.5176-2.985 0.5176-4.463v-17.24c0-1.554 0.0767-3.009-0.5684-4.543-0.2478-0.5893-0.6976-1.058-1.131-1.535 0.4502-0.5038 0.9173-0.9993 1.158-1.633 0.6203-1.631 0.541-3.216 0.541-5.066v-14.32c0.2178-6.521 0.5064-11.06-1.809-13.53l-18-21.05c-1.039-1.17-1.968-2.036-3.24-2.387-0.6073-0.1675-1.152-0.2047-1.662-0.2012zm-0.6855 8.242 15.18 17.08c0.5929 0.6667 0.7658 0.9275 1.123 1.359-0.447 0.0074-0.7115 0.01798-1.262 0.0332h-79.68c-1.513 0-2.503-0.0095-2.646-0.04492-0.1765-0.04369-0.1731-0.03832-0.291-0.1348-0.1179-0.09644-0.3406-0.3339-0.6895-0.8125-0.735-1.011-1.691-2.361-3.098-4.072l-11.01-13.36zm-65.82 26.76h83.74c9e-3 0.0097 0.0163 0.01327 0.0703 0.08398 0.1383 0.1837 0.3379 0.669 0.3398 1.191v16.52c0 0.5118-0.1963 0.9808-0.3379 1.174l-0.0391 0.05273c-0.0321 0.03616-0.0252 0.0342-0.0293 0.04102l-0.084 0.1172v-0.03906l0.0684-0.07813h-83.57c-0.07099-0.06206-0.2606-0.2758-0.3828-0.6035-0.1278-0.3427-0.1739-0.622-0.1797-0.6562v-16.53c0-0.5341 0.2068-1.021 0.3359-1.191 0.05604-0.07384 0.06836-0.07002 0.06836-0.08398zm0.1191 27.38h83.51c0.0293 0.01412 0.0488 0.0085 0.1035 0.08594 0.1711 0.2421 0.4138 0.8745 0.416 1.568v17.66c-4e-3 0.7039-0.2435 1.332-0.416 1.576l-6e-3 0.0078c-0.0489 0.06975-0.0619 0.06119-0.0898 0.07617h-83.54c-0.02694-0.01536-0.04014-0.01037-0.09375-0.08594-0.1656-0.2349-0.402-0.8365-0.4141-1.498v-17.74c0-0.6916 0.2358-1.293 0.4082-1.543zm-0.0078 29.25h83.53c0.021 0.02009 0.0264 0.02017 0.0703 0.08203l6e-3 0.0059 6e-3 0.01172c0.1829 0.2614 0.4293 0.906 0.4316 1.65v17.94c-4e-3 0.7388-0.2562 1.4-0.4316 1.65l-2e-3 4e-3 -2e-3 6e-3c-0.0489 0.0686-0.0546 0.0673-0.0762 0.0879h-83.54c-0.02209-0.0209-0.02612-0.0158-0.07617-0.0879-0.1821-0.2619-0.4002-0.9247-0.4316-1.652v-13.84l0.0039-4.104v-0.0059c-0.01494-0.7223 0.0898-1.744 0.5098-1.752z" color="#000000" stroke-width=".5809" style="-inkscape-stroke:none;paint-order:stroke fill markers"/>
   </g>
   <path id="Path" d="m102 5.461c6.446 7.264 13.07 14.37 19.4 21.74 2.789 3.71-3.297 2.981-5.583 2.984-29.04-5e-3 -58.08 0.01002-87.12-0.0076-3.548-0.1531-4.524-4.259-6.803-6.289-5.126-6.137-10.24-12.28-15.36-18.42 31.83-0.005869 63.66 0.01174 95.48-0.008804z" fill="#ff6767" stroke-width=".6326"/>
  </g>
 </g>
 <g stroke-linejoin="round">
  <g transform="matrix(4.018 0 0 4.03 -51.97 -59.46)" stroke="#fff" stroke-linecap="round" style="paint-order:stroke fill markers">
   <path d="m28.97 42.52-0.0046-11.45 5.325 0.6537-0.0013 8.49-3.43e-4 2.315z" fill="#ffa256" stroke="#000" stroke-linecap="round" stroke-linejoin="round" stroke-width="2.31" style="paint-order:stroke fill markers"/>
   <g transform="matrix(1.132 0 0 1.068 -4.294 -1.662)">
    <path d="m28.85 24.28c-1.636 0-2.879 1.4-2.879 2.926v4.938c0 1.526 1.243 2.926 2.879 2.926h5.682c1.636 0 2.879-1.4 2.879-2.926v-4.938c0-1.526-1.243-2.926-2.879-2.926z" color="#000000" fill="#ebebeb" stroke="none" style="-inkscape-stroke:none"/>
   </g>
   <g stroke="none">
    <path d="m23.85 15.2c-0.9938-0.01325-1.539 1.151-0.8926 1.906l4.924 5.75-0.07031 8.197c2.367 0.2856 7.514 1.899 7.635-0.6445l-2e-3 -8.24c4e-5 -0.3033-0.1192-0.5944-0.332-0.8105l-5.335-5.76c-0.2129-0.2169-0.8294-0.3256-1.133-0.3302z" color="#000000" style="-inkscape-stroke:none"/>
    <path d="m29.04 22.43-0.07459 8.629c2.192-3.488 3.531-3.054 5.325-0.6537l-0.0016-8.24-5.304-5.807-5.151-0.0064z" color="#000000" fill="#ffa256" style="-inkscape-stroke:none"/>
    <path d="m35.44 30.74c0 1.938-1.498 3.039-3.799 2.948-2.071-0.08181-3.83-0.5246-3.83-2.463s1.635-3.722 3.708-3.722 3.921 1.299 3.921 3.237z"/>
    <path d="m29.44 37.77 4.315 0.0128 0.1331-7.093-4.558-0.01z" fill="#c9c9c9" style="paint-order:stroke fill markers"/>
   </g>
  </g>
 </g>
</svg>
