<svg version="1.1" viewBox="0 0 300.6 165" xmlns="http://www.w3.org/2000/svg">
 <style type="text/css">.custom-controls {
height: 64px;
fill: #fff;
}

.control-icon {
opacity: 0;
animation: icon-fade-in-out 4s ease-in-out infinite;
animation-fill-mode: forwards;
}

.stop {
animation-delay: .3s;
}

.play {
animation-delay: .5s;
}

.gamepad {
animation-delay: .7s;
padding: 0 0 0 20px;
}

@keyframes icon-fade-in-out {
0% {
opacity: 0;
}

10% {
opacity: 1;
}

80% {
opacity: 1;
}

90% {
opacity: 0;
}

100% {
opacity: 0;
}
}</style>
 <g transform="translate(-254.1 138)">
  <rect x="254.2" y="-137.9" width="300.5" height="164.9" fill="#4c4e69" stroke-width=".9997" style="paint-order:stroke fill markers"/>
  <path d="m548.2 23.04-286-1.044c-.4555-33.38 20.65-129.6 132.6-129.9 122.9-.4293 154.7 93.62 153.4 131z" fill="#c9cef6" fill-opacity=".2353"/>
  <path d="m479.1-35.72.1193-18.48 17.36-5.82v11.97l-1.99 6.479c-5.004 1.905-9.738 4.692-15.49 5.855z" fill="#f6b597"/>
  <rect class="st4" x="256.6" y="22.23" width="295.8" height="3.642" rx="3.09" ry="3.09" fill="#373a5b" stroke-width=".4858"/>
  <g transform="matrix(-.6801 0 0 .7185 641.4 6.083)">
   <g stroke-width=".4858">
    <g transform="matrix(.4834 0 0 .4882 235.3 -161)" fill="#123e4f">
     <path class="st5" d="m537.4 97.68 10.28-7.25 76.53 108.5-10.28 7.25zm10.7-3.56-7.36 5.2 72.78 103.2 7.36-5.2z"/>
     <rect class="st5" transform="matrix(-.8171 .5765 -.5765 -.8171 1141 -66.67)" x="575.9" y="143.8" width="9.9" height="7.6"/>
     <rect class="st5" transform="matrix(-.8171 .5765 -.5765 -.8171 1190 -29.19)" x="594.7" y="170.4" width="9.9" height="7.6"/>
     <rect class="st5" transform="matrix(-.8171 .5765 -.5765 -.8171 1091 -103.1)" x="556.8" y="117.7" width="9.9" height="7.6"/>
     <path class="st5" d="m573.6 323.5-11.34-5.44 55.02-114.7 11.34 5.44zm-8.38-7.48 8.13 3.9 52.32-109.1-8.13-3.9z"/>
     <rect class="st5" transform="matrix(.9017 .4325 -.4325 .9017 172.6 -231.3)" x="589.9" y="260.1" width="9.9" height="7.28"/>
     <rect class="st5" transform="matrix(.9017 .4325 -.4325 .9017 161.7 -239.9)" x="603.4" y="232" width="9.9" height="7.28"/>
     <rect class="st5" transform="matrix(.9016 .4325 -.4325 .9016 183.5 -223)" x="577" y="288.3" width="9.9" height="7.28"/>
    </g>
    <path class="st2" d="m510.4 22.23h-.4496c-3.103 0-5.641-2.563-5.641-5.698v-21.15c0-3.134 2.538-5.698 5.641-5.698h.4496c3.104 0 5.641 2.563 5.641 5.698v21.15c0 3.134-2.538 5.698-5.641 5.698z" fill="#d3d3d3" stroke-width=".4858"/>
    <path class="st1" d="m541.6 22.23c0-7.353-21.05-13.37-28.33-13.37-6.729 0-12.24 5.561-12.24 12.36 0 .5615.4496 1.016 1.005 1.016z" fill="#ebebeb" stroke-width=".4858"/>
    <g transform="matrix(.4834 0 0 .4882 235.3 -161)">
     <circle class="st2" cx="621.6" cy="210.4" r="13.29" fill="#d3d3d3"/>
     <circle class="st5" cx="621.6" cy="210.4" r="7.62" fill="#123e4f"/>
     <circle class="st2" transform="matrix(.3858 -.9226 .9226 .3858 52.22 722.4)" cx="568.7" cy="322" r="13.29" fill="#d3d3d3"/>
    </g>
    <path class="st5" d="m513.5-3.818c0-1.821-1.465-3.3-3.268-3.3s-3.268 1.479-3.268 3.3 1.465 3.3 3.268 3.3 3.268-1.479 3.268-3.3z" fill="#123e4f" stroke-width=".4858"/>
    <g transform="matrix(.4834 0 0 .4882 235.3 -161)">
     <path class="st17" d="m509.8 105.3c-3.08 9.64-15.38 14.32-27.47 10.46s-19.39-14.81-16.31-24.45z" fill="#fed666"/>
     <path class="st18" d="m488.3 92.15.11-.93c.73-6.37 6.55-10.99 12.92-10.26l43.03 4.94c6.37.73 10.99 6.55 10.26 12.92l-.11.93c-.73 6.37-6.55 10.99-12.92 10.26l-43.03-4.94c-6.37-.73-10.99-6.54-10.26-12.92z" fill="#c2c5c6"/>
     <circle class="st5" transform="matrix(.9968 -.08 .08 .9968 -6.098 43.76)" cx="542.8" cy="97.95" r="6.76" fill="#123e4f"/>
     <circle class="st2" transform="matrix(.9234 -.3838 .3838 .9234 3.98 215.8)" cx="542.8" cy="97.95" r="13.29" fill="#d3d3d3"/>
     <path class="st5" d="m550.4 98.82c.48-4.18-2.52-7.96-6.7-8.44s-7.96 2.52-8.44 6.7 2.52 7.96 6.7 8.44 7.96-2.52 8.44-6.7z" fill="#123e4f"/>
     <path class="st1" d="m526.1 121.4c5.7-17.81-7.8-38.04-30.14-45.19-22.34-7.14-45.07 1.51-50.76 19.32z" fill="#ebebeb"/>
    </g>
    <path class="st2" d="m505.4 22.17c-.5559 0-1.006-.4541-1.006-1.016 0-6.191 5.032-11.43 10.93-12.3-.5801-.04881-1.325-.2295-1.798-.2295h-.5753c-6.729 0-11.91 5.786-11.91 12.58 0 .5615.4496 1.016 1.005 1.016h39.56c0-.01955 0-.03417-.004-.05374z" fill="#d3d3d3"/>
   </g>
  </g>
  <g transform="matrix(.7197 0 0 .719 477.3 -87.76)">
   <path d="m-229.6 74.44c-.9524-4.752 2.674-9.626 6.835-9.629l91.57-.083c5.041-.0046 9.496-.2994 11.23 9.442l10.36 58.13c1.328 7.447-5.895 11.31-9.322 11.3l-86.69-.2472c-8.263-.0236-10.59-2.111-11.93-8.764z" fill="#c6d0df"/>
   <path d="m-229.4 76.29c-.6721-3.226-.9659-6.305 2.447-6.292l92.99.3496c4.423.01663 7.65 3.074 8.39 7.341l10.49 60.48c.5291 3.051-1.816 5.467-5.244 5.459l-86.69-.2149c-6.782-.0168-8.9-2.45-9.701-6.292z" fill="#ebf0fa"/>
  </g>
  <path d="m467.9-15.08-5.472 17.7c-1.376 1.937-2.999 3.474-5.315 3.883l-18.6 1.242v7.144l25.33-1.398z" fill="#e9901a"/>
  <path d="m438.6 12.48-.0782-3.417c-2.305-.3059-3.862-1.265-6.644-1.165-2.406.5812-4.262 1.753-6.019 3.028-.9269 1.555-.6741 2.93.3127 4.193l12.35-.233z" fill="#e89c81"/>
  <path d="m436.1 20.89-20.6-.0067c-.3169-1.409-.238-2.739-.0829-4.148l.6356-1.208 8.622-4.722 2.211-.4393 2.543.4393 6.971 1.491z" fill="#f6b597"/>
  <path d="m505.1-45.68s3.186-.5841 4.768-.3883c2.077.257 4.338.6823 5.941 2.019 1.778 1.482 2.922 3.793 3.361 6.057 3.842 19.82-7.628 39.74-7.504 60.1l-10.16-.3106-15.08-.06506z" fill="#675f49"/>
  <path d="m436 10.92-.4422 10.76h55.27c1.16-.7167 2.229-2.072 3.095-4.832l10.83-45.68c-.1785-1.509.9699-3.341-2.487-5.71-3.832-2.626-12.43-1.896-13.21 1.318l-9.065 37.56c-.5907 1.494-1.269 2.877-2.874 3.075z" fill="#ffac3f"/>
  <path d="m479.3-47.67c-3.408 3.43-5.825 9.129-7.624 14.88-1.823 5.902-2.793 11.8-3.752 17.7l-3.384 23.63 12.58-1.148c1.389-.1682 2.217-1.452 2.874-3.075l9.065-37.56c2.717-4.118 7.218-2.584 11.5-1.757 3.098.7847 4.034 3.18 4.201 6.15l-12.13 50.48 9.849.07766c1.331-6.523 7.021-35.97 7.67-42.49.811-8.623 1.08-18.86-5.012-24.91-2.608-2.003-5.092-4.103-8.406-5.545-.1599 3.076-.4494 4.347-.9743 5.701-3.461 6.291-10.78 7.486-16.44 9.364z" fill="#ffc543"/>
  <rect x="265.2" y="-104.8" width="76.88" height="4.449" rx="2.101" ry="2.101" fill="#606c7b" style="paint-order:fill markers stroke"/>
  <g transform="matrix(.007988 .5192 -.4947 .006885 266.5 -293.6)">
   <g transform="matrix(.4794 0 0 .4298 304 -53.39)" stroke-width="3.632">
    <path d="m124.3 66.45h-89.39s-1.641 6.054-1.641 15.66c0 9.605 1.641 15.03 1.641 15.03h89.39s3.438-3.836 3.438-15.34c0-11.51-3.438-15.34-3.438-15.34z" fill="#3f51b5"/>
    <path d="m124.3 35.76h-89.39s-1.94 6.764-1.94 16.37 1.94 14.32 1.94 14.32h89.39s3.438-3.836 3.438-15.34c0-11.51-3.438-15.34-3.438-15.34z" fill="#9c27b0"/>
    <path d="m124.3 97.13h-89.39s-1.5 6.414-1.5 16.02 1.5 14.67 1.5 14.67h89.39s3.438-3.836 3.438-15.34-3.438-15.34-3.438-15.34z" fill="#8bc34a"/>
    <path d="m124.3 97.13h-89.39s1.516 2.9 2.52 7.672h89.51c-1.014-5.527-2.641-7.672-2.641-7.672z" fill="#689f38"/>
    <path d="m124.3 66.45h-89.39s1.516 2.9 2.52 7.672h89.51c-1.014-5.527-2.641-7.672-2.641-7.672z" fill="#303f9f"/>
    <path d="m52.21 93.3c.3782-1.726 1.028-5.29 1.028-9.59s-.6498-7.863-1.028-9.59h-6.993c.0091.03452 1.145 4.86 1.145 9.59s-1.138 9.563-1.145 9.59zm0-30.69c.3782-1.726 1.028-5.29 1.028-9.59s-.6498-7.863-1.028-9.59h-6.993c.0091.03452 1.145 4.86 1.145 9.59s-1.138 9.563-1.145 9.59zm0 61.37c.3782-1.726 1.028-5.29 1.028-9.59s-.6498-7.863-1.028-9.59h-6.993c.0091.0346 1.145 4.86 1.145 9.59s-1.138 9.563-1.145 9.59z" fill="#fdd835"/>
   </g>
  </g>
  <path d="m466-82.64c-2.004-3.028-4.624-6.057-5.081-9.085-.441-3.683-.5047-6.17 2.189-8.386 5.695-4.687 11.15-6.847 18.84-7.765 4.553.5684 8.687 2.344 10.08 5.203.7587 1.788 1.204 2.928 2.947 2.37 2.46-.7865 4.12-.3745 6.12.1145 8.396 5.321 8.722 10.1 7.817 18.17-.7792 6.476-5.896 8.959-9.172 15.14z" fill="#363226"/>
  <path d="m495.6-58.84c-4.977 3.653-10.19 4.515-16.33 4.637-3.113.06195-5.55-1.684-7.754-3.45-2.284-1.831-3.862-3.768-5.218-7.047-1.127-2.725-.6198-5.653-.7782-8.486.0409-3.543.0186-7.095.0991-10.63-.157-1.152.1871-2.091.7572-2.934 1.755.8719 3.53 1.511 5.296 1.895 2.367.2118 4.79-.05328 7.146-.6112 4.22-2.1 8.223-3.732 12.42-2.953 2.676.6889 2.793 5.51 1.094 8.192-2.092 1.915-3.016 4.538-1.157 6.513 1.471.8186 3.021 1.167 4.596 1.369-.2015-1.09-.2315-1.574-.3356-2.655-.081-.7158-.0256-1.608.9609-2.198.915-.5476 2.024-.8504 3.361-.6212.8477.1453 1.075.9219 1.078 1.649.1163 1.698-.3267 3.412-1.121 5.028-.2922.5679-.2877 1.126.0473 1.675 1.057 4.174-1.397 7.874-4.161 10.63z" fill="#f0a582"/>
  <g transform="matrix(.4834 0 0 .4882 475.3 -161.1)">
   <path d="m147.8 274c-2.284 18.05-13.32 32.97-29.75 32.97s-29.75-14.76-29.75-32.97c0-3.77 6.308 9.576 7.401 5.955-.04896-6.073-1.779-22.05-1.25-28.09 1.557-17.8 9.749 11.47 16.5 18.47 1.511-4.595.4871-39.8 4.283-35.35 6.816 7.993 12.63 26.04 11.51 28.11-1.935 3.576 6.305-22.04 9.654-20.1 2.425 1.253 6.535 14.74 8.357 20.16 7.286-23.82 3.675 5.833 3.041 10.84z" fill="#80b040" stroke-width="1.029"/>
  </g>
  <g stroke-width=".4858">
   <path class="st11" d="m535.4 22.18h-6.004c-5.695 0-10.35-4.707-10.35-10.46l-1.45-22.66c0-2.285 3.302-3.662 5.559-3.662h18.97c2.258 0 5.076 1.377 5.076 3.662l-1.45 22.66c4e-3 5.756-4.655 10.46-10.35 10.46z" fill="#d78724"/>
   <g transform="translate(240 -.05216)" fill="#b26a22">
    <path class="st14" d="m306.5-9.277h-28.26c-1.436 0-2.61-1.186-2.61-2.636s1.175-2.636 2.61-2.636h28.26c1.436 0 2.61 1.186 2.61 2.636-4e-3 1.45-1.18 2.636-2.615 2.636z"/>
    <path class="st14" d="m303.7 22.23h-22.55c-1.044 0-1.9-.8642-1.9-1.919 0-1.055.8556-1.919 1.9-1.919h22.55c1.044 0 1.9.8642 1.9 1.919-.004 1.059-.8605 1.919-1.905 1.919z"/>
   </g>
  </g>
  <g transform="matrix(.007988 .5192 -.4947 .006885 286.1 -293.9)">
   <g transform="matrix(.4794 0 0 .4298 304 -53.39)" stroke-width="3.632">
    <path d="m124.3 66.45h-89.39s-1.641 6.054-1.641 15.66c0 9.605 1.641 15.03 1.641 15.03h89.39s3.438-3.836 3.438-15.34c0-11.51-3.438-15.34-3.438-15.34z" fill="#3f51b5"/>
    <path d="m124.3 35.76h-89.39s-1.94 6.764-1.94 16.37 1.94 14.32 1.94 14.32h89.39s3.438-3.836 3.438-15.34c0-11.51-3.438-15.34-3.438-15.34z" fill="#9c27b0"/>
    <path d="m124.3 97.13h-89.39s-1.5 6.414-1.5 16.02 1.5 14.67 1.5 14.67h89.39s3.438-3.836 3.438-15.34-3.438-15.34-3.438-15.34z" fill="#8bc34a"/>
    <path d="m124.3 97.13h-89.39s1.516 2.9 2.52 7.672h89.51c-1.014-5.527-2.641-7.672-2.641-7.672z" fill="#689f38"/>
    <path d="m124.3 66.45h-89.39s1.516 2.9 2.52 7.672h89.51c-1.014-5.527-2.641-7.672-2.641-7.672z" fill="#303f9f"/>
    <path d="m52.21 93.3c.3782-1.726 1.028-5.29 1.028-9.59s-.6498-7.863-1.028-9.59h-6.993c.0091.03452 1.145 4.86 1.145 9.59s-1.138 9.563-1.145 9.59zm0-30.69c.3782-1.726 1.028-5.29 1.028-9.59s-.6498-7.863-1.028-9.59h-6.993c.0091.03452 1.145 4.86 1.145 9.59s-1.138 9.563-1.145 9.59zm0 61.37c.3782-1.726 1.028-5.29 1.028-9.59s-.6498-7.863-1.028-9.59h-6.993c.0091.0346 1.145 4.86 1.145 9.59s-1.138 9.563-1.145 9.59z" fill="#fdd835"/>
   </g>
  </g>
  <g transform="matrix(.007988 .5192 -.4947 .006885 308.3 -294.2)">
   <g transform="matrix(.4794 0 0 .4298 304 -53.39)" stroke-width="3.632">
    <path d="m124.2 78.78h-89.39s-1.641 6.054-1.641 15.66c0 9.605 1.641 15.03 1.641 15.03h89.39s3.438-3.836 3.438-15.34c0-11.51-3.438-15.34-3.438-15.34z" fill="#3f51b5"/>
    <path d="m124.2 48.09h-89.39s-1.94 6.764-1.94 16.37 1.94 14.32 1.94 14.32h89.39s3.438-3.836 3.438-15.34c0-11.51-3.438-15.34-3.438-15.34z" fill="#9c27b0"/>
    <path d="m124.2 140.2h-89.39s1.516 2.9 2.52 7.672h89.51c-1.014-5.527-2.641-7.672-2.641-7.672z" fill="#7d5483" stroke-width="3.632"/>
    <path d="m124.2 109.5h-89.39s-1.5 6.414-1.5 16.02 1.5 14.67 1.5 14.67h89.39s3.438-3.836 3.438-15.34-3.438-15.34-3.438-15.34z" fill="#8bc34a"/>
    <path d="m124.2 109.5h-89.39s1.516 2.9 2.52 7.672h89.51c-1.014-5.527-2.641-7.672-2.641-7.672z" fill="#689f38"/>
    <path d="m124.2 78.78h-89.39s1.516 2.9 2.52 7.672h89.51c-1.014-5.527-2.641-7.672-2.641-7.672z" fill="#303f9f"/>
    <g fill="#fdd835">
     <path d="m52.06 105.6c.3782-1.726 1.028-5.29 1.028-9.59s-.6498-7.863-1.028-9.59h-6.993c.0091.03452 1.145 4.86 1.145 9.59s-1.138 9.563-1.145 9.59z"/>
     <path d="m52.06 74.94c.3782-1.726 1.028-5.29 1.028-9.59s-.6498-7.863-1.028-9.59h-6.993c.0091.03452 1.145 4.86 1.145 9.59s-1.138 9.563-1.145 9.59z"/>
     <path d="m52.06 136.3c.3782-1.726 1.028-5.29 1.028-9.59s-.6498-7.863-1.028-9.59h-6.993c.0091.0346 1.145 4.86 1.145 9.59s-1.138 9.563-1.145 9.59z"/>
    </g>
    <g stroke-width="3.632">
     <path d="m120.3-9.29-86.22 27.46s-.3551 7.126 1.798 16.4c2.153 9.275 5.08 13.23 5.08 13.23l86.22-27.46s2.456-4.759-.1219-15.86c-2.58-11.11-6.754-13.75-6.754-13.75z" fill="#3f51b5"/>
     <path d="m56.8 38.78c-.02204-1.782-.194-5.422-1.158-9.573s-2.389-7.391-3.141-8.942l-6.745 2.148c.01651.03051 2.194 4.34 3.254 8.906s1.046 9.581 1.045 9.609z" fill="#fdd835"/>
     <path d="m124.2 48.1h-89.39s1.516 2.9 2.52 7.672h89.51c-1.014-5.527-2.641-7.672-2.641-7.672z" fill="#7d5483"/>
     <path d="m124.2 232.2h-89.39s1.516 2.9 2.52 7.672h89.51c-1.014-5.527-2.641-7.672-2.641-7.672z" fill="#7d5483"/>
     <path d="m120.4-8.956-86.3 27.13s1.767 1.308 3.793 5.614l86.42-27.57c-2.203-5.032-3.914-5.167-3.914-5.167z" fill="#303f9f"/>
    </g>
   </g>
  </g>
  <g transform="matrix(1.077 0 0 1.127 -105.4 -318.1)">
   <g id="a_laptop" transform="matrix(.09018 0 0 .0918 25.19 17.4)">
    <g transform="matrix(.6495 0 0 .6561 4045 1703)">
     <path d="m1894 835.6h-983.2c-50.25 0-90.99-40.74-90.99-90.99v-230.1c0-50.25 40.74-90.99 90.99-90.99h983.2c50.25 0 90.99 40.74 90.99 90.99v230.1c.01 50.26-40.73 90.99-90.98 90.99z" fill="#fff"/>
     <rect x="864.2" y="629.6" width="1076" height="109.6" fill="#e2e2e2"/>
     <g fill="#8de3a5">
      <rect x="865.3" y="629.6" width="804.9" height="109.6"/>
      <rect class="control-icon stop" x="1683" y="629.6" width="50.48" height="109.6" stroke-width="1.394"/>
      <rect class="control-icon stop" x="1747" y="629.6" width="44.6" height="109.6" stroke-width="1.31"/>
      <rect class="control-icon play" x="1811" y="629.6" width="40.68" height="109.6" stroke-width="1.251"/>
     </g>
     <g fill="#0088a2">
      <path d="m1547 683.2c2.953 1.09 5.399 3.699 5.655 6.925.6492 4.993.7668 10.12-.041 15.1-.5297 4.429-4.347 7.643-8.468 8.742-4.668 1.173-9.706 1.211-14.34-.1274-4.135-1.263-7.605-4.809-8.156-9.185-.8107-5.334-.763-10.85.319-16.14.1678-2.492 3.595-4.367 4.296-5.481-3.985-2.074-4.869-7.063-4.677-11.15.022-4.373 1.935-9.061 6.018-11.11 4.684-2.383 10.22-2.258 15.29-1.439 3.424.5604 6.731 2.531 8.181 5.788 1.854 3.946 1.992 8.571 1.082 12.78-.6367 2.553-2.996 4.096-5.152 5.294zm-7.29 10.85c-.051-1.827.1274-4.842-2.3-5.114-2.497-.4113-2.902 2.529-2.821 4.357.049 3.633-.1767 7.284.1981 10.9-.08 2.173 2.99 3.213 4.285 1.575.9941-2.462.5315-5.216.6383-7.823v-3.896zm-.27-22.42c.1833-1.942-.2404-5.15-2.943-4.43-2.032.6628-1.54 3.267-1.657 4.963.1071 2.312-.3247 4.735.53 6.938 1.66 2.331 4.728-.0229 4.04-2.459.056-1.669.019-3.34.03-5.011z"/>
      <path d="m1595 678.2c-.047 7.474.1085 14.95-.1096 22.42-.068 3.616-.969 7.379-3.586 10.03-3.748 4.185-9.832 4.646-15.08 4.088-4.148-.3212-8.439-2.157-10.56-5.921-2.864-4.328-2.341-9.707-2.418-14.65.049-6.743-.1174-13.49.1257-20.23.2574-4.164.9218-8.875 4.501-11.57 4.748-3.782 11.45-4.157 17.12-2.566 4.014 1.178 7.758 3.99 9.009 8.121 1.029 3.312.9322 6.855.9984 10.29zm-13.46-4.53c-.2592-2.004.5081-4.669-1.118-6.19-2.181-1.196-3.939 1.044-3.621 3.129-.1898 7.055-.048 14.12-.092 21.17.071 4.384-.1907 8.786.2531 13.15.2848 2.673 4.794 1.983 4.402-.6903.3437-4.792.1214-9.607.1851-14.41-.01-5.385.013-10.8-.01-16.16z"/>
      <path d="m1623 669.1c-.087 4.363.2215 8.75-.2671 13.09-.427 4.025-4.74 6.093-8.39 6.107-3.816.2107-8.571-.4905-10.41-4.339-1.24-3.455-.6333-7.191-.78-10.79.141-3.642-.554-7.587 1.321-10.89 2.722-3.537 7.792-3.806 11.85-3.065 3.216.5869 6.33 3.06 6.484 6.522.1529 1.112.1986 2.236.2 3.358zm-8.53-2.36c.8475-1.903-1.401-4.624-2.688-2.236-.3061 4.145-.084 8.321-.1519 12.48.067 2.047-.1768 4.132.23 6.147 2.321 1.803 2.954-1.543 2.6-3.281.01-4.366-.013-8.759.01-13.11zm24.22-7.86c-7.027 18.66-14.05 37.33-21.08 55.99h-5.13c7.053-18.66 14.11-37.33 21.16-55.99zm9.32 36.27c-.074 4.259.1851 8.535-.2165 12.78-.2411 4.005-4.355 6.329-8.006 6.423-3.822.2681-8.473-.2917-10.63-3.91-1.521-3.326-.8445-7.077-.998-10.62.1388-3.681-.5013-7.571 1.046-11.03 2.425-3.869 7.653-4.294 11.75-3.628 3.229.4926 6.545 2.807 6.805 6.299.1908 1.219.2429 2.455.245 3.688zm-8.52-2.33c.8418-1.881-1.381-4.687-2.661-2.274-.2831 4.446-.076 8.916-.1392 13.37.1191 1.803-.3214 3.773.3936 5.445 2.569 1.335 2.538-1.971 2.396-3.64.01-4.298-.013-8.623.01-12.9z"/>
     </g>
     <g transform="matrix(2.277,0,0,2.329,-369.7,-120.6)" fill="#123e4f" aria-label="ЗАГРУЗКА">
      <path d="m673.4 289.6c.1004 3.633-2.007 7.176-5.278 8.78-4.611 2.486-10.04 2.504-15.13 2.127-3.111-.3121-6.19-1.001-9.121-2.095v-7.875c1.326-.1843 2.284 1.022 3.48 1.406 2.999 1.37 6.25 2.488 9.598 2.173 2.526-.1317 5.562-.7813 6.762-3.272.7113-1.965.3618-4.816-1.833-5.667-2.746-.9557-5.7-.5506-8.555-.6401h-2.632v-6.234c2.849-.0511 5.708.1264 8.547-.145 1.741-.1186 3.73-1.164 3.812-3.115.3252-1.438-.5199-2.947-1.94-3.375-4.291-1.493-9.019-.4568-13.04 1.361-.9925.3986-1.903 1.198-3.027 1.032v-7.336c6.476-2.22 13.59-3.079 20.31-1.504 3.121.7566 6.418 2.835 6.988 6.235.6902 3.303-1.093 6.777-4.027 8.364-.7009.774-2.515.5483-2.783 1.436 3.144.4832 6.366 2.284 7.453 5.43.3195.9347.4203 1.93.4219 2.914z"/>
      <path d="m712.7 300h-9.305l-2.414-7.055h-12.94l-2.414 7.055h-9.07l12.89-34.9h10.36zm-13.9-13.45-4.289-12.52-4.289 12.52z"/>
      <path d="m742.9 271.8h-16.17v28.15h-9v-34.9h25.17z"/>
      <path d="m777.1 276.1c.0234 3.756-1.621 7.609-4.798 9.749-2.913 2.298-6.713 2.888-10.32 2.767h-4.685v11.37h-9v-34.9c5.534.0259 11.07-.0548 16.6.0464 4.071.1648 8.593 1.559 10.79 5.263 1.039 1.707 1.423 3.728 1.416 5.707zm-9.305.2109c.0991-2.289-1.869-4.147-4.037-4.465-2.133-.3512-4.308-.2145-6.463-.2461v10.45c2.688-.0691 5.522.2965 8.034-.8525 1.83-.8844 2.529-2.978 2.466-4.89z"/>
      <path d="m814.2 265.1c-4.383 9.592-8.707 19.21-13.13 28.79-1.626 3.404-4.999 5.99-8.821 6.228-3.021.2579-6.06.0211-9.082-.1157v-7.617c1.573.1049 3.135.5359 4.734.4453 1.844-.0761 4.05-.0261 5.432-1.44.1136-.5805-.5478-1.167-.7543-1.75-4.442-8.179-8.884-16.36-13.33-24.54h9.773c2.891 5.516 5.781 11.03 8.672 16.55 2.383-5.516 4.766-11.03 7.148-16.55 3.117-2e-5 6.234-3e-5 9.352-5e-5z"/>
      <path d="m845.7 289.6c.1004 3.633-2.007 7.176-5.278 8.78-4.611 2.486-10.04 2.504-15.13 2.127-3.111-.3121-6.19-1.001-9.121-2.095v-7.875c1.326-.1843 2.284 1.022 3.48 1.406 2.999 1.37 6.25 2.488 9.598 2.173 2.526-.1317 5.562-.7813 6.762-3.272.7113-1.965.3618-4.816-1.833-5.667-2.746-.9557-5.7-.5506-8.555-.6401h-2.632v-6.234c2.849-.0511 5.708.1264 8.547-.145 1.741-.1186 3.73-1.164 3.812-3.115.3252-1.438-.5199-2.947-1.94-3.375-4.291-1.493-9.019-.4568-13.04 1.361-.9925.3986-1.903 1.198-3.027 1.032v-7.336c6.476-2.22 13.59-3.079 20.31-1.504 3.121.7566 6.418 2.835 6.988 6.235.6902 3.303-1.093 6.777-4.027 8.364-.7009.774-2.515.5483-2.783 1.436 3.144.4832 6.366 2.284 7.453 5.43.3195.9347.4203 1.93.4219 2.914z"/>
      <path d="m885.3 300h-11.04c-3.438-4.695-6.875-9.391-10.31-14.09h-2.203v14.09h-9v-34.9h9v14.23c1.676.0577 3.362-.6005 4.343-2.005 2.896-3.514 3.935-8.498 7.914-11.1 2.832-1.58 6.177-1.144 9.282-1.124v7.57c-1.998.0886-4.367-.4347-5.869 1.254-2.25 2.455-2.866 6.207-5.78 8.074 4.555 6 9.109 12 13.66 18z"/>
      <path d="m922.1 300h-9.305l-2.414-7.055h-12.94l-2.414 7.055h-9.07l12.89-34.9h10.36zm-13.9-13.45-4.289-12.52-4.289 12.52z"/>
     </g>
    </g>
   </g>
  </g>
 </g>
 <g transform="translate(-254.1,138)">
  <path transform="matrix(.7197 0 0 .719 477.3 -87.76)" d="m-119.8 143.6-.055 9.04 72.61.0448c3.758.002 4.407-3.057 4.401-5.005l-.0128-4.036z" fill="#c6d0df"/>
  <path transform="matrix(.7197 0 0 .719 477.3 -87.76)" d="m-208.6 143.4.0656 5.882s-.015 3.431 2.756 3.432l89.5.0287c-1.957-.5294-3.467-1.585-3.461-2.472v-6.612z" fill="#f8f9fc"/>
 </g>
 <path d="m218.3 73.93h11.37c-4.605 5.139-7.287 5.141-11.37 0z" fill="#fff"/>
 <ellipse cx="217.8" cy="62.14" rx="2.642" ry="3.408" fill="#363226" style="paint-order:fill markers stroke"/>
 <ellipse cx="227.5" cy="62.05" rx="2.753" ry="3.408" fill="#363226" style="paint-order:fill markers stroke"/>
 <g fill="#fff">
  <ellipse cx="226.9" cy="62.4" rx="1.092" ry="1.398" style="paint-order:fill markers stroke"/>
  <ellipse cx="217.2" cy="62.66" rx="1.092" ry="1.398" style="paint-order:fill markers stroke"/>
  <path id="WinRAR" d="m118.9 40.55-2.962-11.83h1.515l1.698 7.756c0.1826 0.8125 0.3401 1.619 0.4718 2.421 0.2842-1.265 0.4518-1.993 0.5024-2.186l2.124-7.989h1.781l1.598 5.988c0.4007 1.485 0.6901 2.88 0.8678 4.189 0.1421-0.7478 0.3273-1.606 0.5558-2.575l1.751-7.602h1.484l-3.058 11.83h-1.423l-2.351-9.013c-0.198-0.7532-0.3147-1.216-0.3501-1.388-0.1168 0.5434-0.2258 1.006-0.3273 1.388l-2.368 9.013zm12.59-10.16v-1.67h1.37v1.67zm0 10.16v-8.57h1.37v8.57zm3.456 0v-8.57h1.233v1.219c0.5937-0.9416 1.451-1.412 2.573-1.412 0.4871 0 0.935 0.0928 1.343 0.2784 0.4084 0.1856 0.7142 0.4291 0.9174 0.7305 0.203 0.3014 0.345 0.659 0.4261 1.073 0.0508 0.269 0.0762 0.7399 0.0762 1.412v5.27h-1.37v-5.214c0-0.5918-0.0532-1.034-0.1598-1.328-0.1065-0.2931-0.2956-0.5272-0.5669-0.7022-0.2715-0.1748-0.5899-0.2623-0.9553-0.2623-0.5835 0-1.087 0.1964-1.511 0.5892-0.4237 0.3927-0.6356 1.138-0.6356 2.235v4.679z" stroke-width=".2892"/>
  <path id="Combined-Shape" d="m146.4 28.72h6.433c1.11 0 1.923 0.304 2.437 0.9118 0.5142 0.6079 0.7712 1.339 0.7712 2.195 0 0.9254-0.2725 1.734-0.8174 2.425-0.5448 0.6913-1.416 1.134-2.613 1.328 0.7095 0.6025 1.558 2.259 2.544 4.972h-3.695c-0.3086-0.8553-0.6722-1.791-1.091-2.805-0.4189-1.014-0.7337-1.602-0.9447-1.763-0.2108-0.1614-0.4652-0.2421-0.7635-0.2421h-0.1851l-0.9638 4.81h-3.509zm2.529 4.81h0.6633c1.11 0 1.829-0.05381 2.155-0.1614 0.3265-0.1076 0.5693-0.2892 0.7287-0.5446 0.1594-0.2555 0.239-0.5018 0.239-0.7384 0-0.3014-0.095-0.5381-0.2853-0.7101-0.1902-0.1721-0.6041-0.2582-1.242-0.2582h-1.773zm18.36 7.022h-3.424l-0.1542-1.937h-3.686l-0.8789 1.937h-3.763l6.386-11.83h3.724zm-3.801-4.447-0.3471-4.311h-0.0309l-1.944 4.311zm7.478-7.384h6.433c1.11 0 1.923 0.304 2.437 0.9118 0.5142 0.6079 0.7712 1.339 0.7712 2.195 0 0.9254-0.2725 1.734-0.8174 2.425-0.5448 0.6913-1.416 1.134-2.613 1.328 0.7095 0.6025 1.558 2.259 2.544 4.972h-3.695c-0.3085-0.8553-0.6721-1.791-1.091-2.805-0.419-1.014-0.7337-1.602-0.9447-1.763-0.2108-0.1614-0.4652-0.2421-0.7635-0.2421h-0.1851l-0.9638 4.81h-3.509zm2.529 4.81h0.6633c1.11 0 1.829-0.05381 2.155-0.1614 0.3265-0.1076 0.5693-0.2892 0.7287-0.5446 0.1594-0.2555 0.239-0.5018 0.239-0.7384 0-0.3014-0.0951-0.5381-0.2853-0.7101-0.1902-0.1721-0.604-0.2582-1.242-0.2582h-1.773z" stroke-width=".2892"/>
 </g>
 <g transform="matrix(.8303 0 .2396 1.204 0 0)" fill="#2e3e51" stroke-width=".905" aria-label="RARLAB">
  <path d="m68.89 104.5q0-.2969-.122-.509t-.4189-.3341q-.2068-.0848-.4825-.1007-.2757-.0212-.6416-.0212h-.737v2.126h.6257q.4878 0 .8166-.0477t.5515-.2174q.2121-.1644.3075-.3606.1007-.2015.1007-.5356zm3.176 5.477h-2.487l-2.153-2.895h-.9385v2.895h-2.026v-7.895h3.415q.6999 0 1.204.0795.5037.0795.9438.3447.4454.2651.7052.6893.2651.4189.2651 1.055 0 .8749-.4083 1.426-.403.5515-1.156.9173z"/>
  <path d="m80.26 110h-2.105l-.5462-1.596h-2.927l-.5462 1.596h-2.052l2.916-7.895h2.344zm-3.144-3.044-.9704-2.832-.9704 2.832z"/>
  <path d="m85.83 104.5q0-.2969-.122-.509t-.4189-.3341q-.2068-.0848-.4825-.1007-.2757-.0212-.6416-.0212h-.737v2.126h.6257q.4878 0 .8166-.0477t.5515-.2174q.2121-.1644.3075-.3606.1007-.2015.1007-.5356zm3.176 5.477h-2.487l-2.153-2.895h-.9385v2.895h-2.026v-7.895h3.415q.6999 0 1.204.0795.5037.0795.9438.3447.4454.2651.7052.6893.2651.4189.2651 1.055 0 .8749-.4083 1.426-.403.5515-1.156.9173z"/>
  <path d="m95.61 110h-5.695v-7.895h2.036v6.368h3.659z"/>
  <path d="m104.1 110h-2.105l-.5462-1.596h-2.927l-.5462 1.596h-2.052l2.916-7.895h2.344zm-3.144-3.044-.9704-2.832-.9704 2.832z"/>
  <path d="m112 107.5q0 .5727-.2333 1.023-.228.4507-.631.7476-.4666.35-1.029.4984-.5568.1485-1.416.1485h-3.447v-7.895h3.065q.9544 0 1.395.0636.4454.0636.8802.281.4507.228.6681.6151.2227.3818.2227.8749 0 .5727-.3022 1.013-.3022.4348-.8537.6787v.0424q.7742.1538 1.225.6363.456.4825.456 1.273zm-2.609-3.245q0-.1962-.1008-.3924-.0954-.1962-.3447-.2916-.2227-.0848-.5568-.0901-.3288-.0106-.9279-.0106h-.1909v1.67h.3182q.4825 0 .8219-.0159t.5356-.106q.2757-.122.3606-.3128.0848-.1962.0848-.4507zm.4984 3.213q0-.3765-.1485-.578-.1432-.2068-.4931-.3076-.2386-.0689-.6575-.0742-.4189-.005-.8749-.005h-.4454v1.967h.1485q.859 0 1.23-.005.3712-.005.684-.1379.3182-.1326.4348-.35.122-.2227.122-.509z"/>
 </g>
</svg>
