<svg width="139.7" height="156.1" version="1.1" viewBox="0 0 140 156" xmlns="http://www.w3.org/2000/svg">
 <rect x="-.503" y="-.595" width="141" height="158" rx="0" ry="0" fill="#fff" style="paint-order:stroke fill markers"/>
 <rect x="23.68" y="16.66" width="94.57" height="101" rx="5.26" ry="5.545" clip-rule="evenodd" fill="#e3e3e3" fill-rule="evenodd" image-rendering="optimizeQuality" shape-rendering="geometricPrecision" style="paint-order:stroke fill markers"/>
 <g aria-label="WinRAR-install.exe">
  <path d="m41.86 128.6-2.513 9.67h-1.448l-2.033-8.027-1.987 8.027h-1.416l-2.559-9.67h1.318l2.033 8.04 2-8.04h1.305l2.02 8.118 2.02-8.118z"/>
  <path d="m44.77 129.8h-1.377v-1.266h1.377zm-0.07793 8.468h-1.221v-7.254h1.221z"/>
  <path d="m53 138.3h-1.221v-4.13q0-0.5-0.05845-0.9352-0.05845-0.4416-0.2143-0.6884-0.1624-0.2728-0.4676-0.4026-0.3052-0.1364-0.7923-0.1364-0.5 0-1.046 0.2468t-1.046 0.6299v5.416h-1.221v-7.254h1.221v0.8053q0.5715-0.4741 1.182-0.7403t1.253-0.2663q1.175 0 1.792 0.7079 0.6169 0.7079 0.6169 2.039z"/>
  <path d="m63.26 138.3h-1.669l-3.234-3.845h-1.812v3.845h-1.286v-9.67h2.708q0.8767 0 1.461 0.1169 0.5845 0.1104 1.052 0.4026 0.526 0.3312 0.8183 0.8377 0.2987 0.5 0.2987 1.273 0 1.046-0.526 1.753-0.526 0.7014-1.448 1.059zm-3.007-6.949q0-0.4156-0.1494-0.7338-0.1429-0.3247-0.4806-0.5455-0.2792-0.1883-0.6624-0.2598-0.3832-0.0779-0.9027-0.0779h-1.513v3.65h1.299q0.6104 0 1.065-0.1039 0.4546-0.1104 0.7728-0.4026 0.2922-0.2728 0.4286-0.6234 0.1429-0.3572 0.1429-0.9027z"/>
  <path d="m71.94 138.3h-1.37l-0.9481-2.695h-4.182l-0.9481 2.695h-1.305l3.52-9.67h1.714zm-2.715-3.799-1.695-4.747-1.701 4.747z"/>
  <path d="m81.22 138.3h-1.669l-3.234-3.845h-1.812v3.845h-1.286v-9.67h2.708q0.8767 0 1.461 0.1169 0.5845 0.1104 1.052 0.4026 0.526 0.3312 0.8183 0.8377 0.2987 0.5 0.2987 1.273 0 1.046-0.526 1.753-0.526 0.7014-1.448 1.059zm-3.007-6.949q0-0.4156-0.1494-0.7338-0.1429-0.3247-0.4806-0.5455-0.2792-0.1883-0.6624-0.2598-0.3832-0.0779-0.9027-0.0779h-1.513v3.65h1.299q0.6104 0 1.065-0.1039 0.4546-0.1104 0.7728-0.4026 0.2922-0.2728 0.4286-0.6234 0.1429-0.3572 0.1429-0.9027z"/>
  <path d="m85.57 138.3h-1.552v-1.851h1.552z"/>
  <path d="m94.27 134.8h-5.345q0 0.6689 0.2013 1.169 0.2013 0.4936 0.552 0.8118 0.3377 0.3117 0.7988 0.4676 0.4676 0.1559 1.026 0.1559 0.7403 0 1.487-0.2922 0.7533-0.2987 1.072-0.5845h0.0649v1.331q-0.617 0.2598-1.26 0.4351t-1.351 0.1753q-1.805 0-2.818-0.9741-1.013-0.9806-1.013-2.779 0-1.779 0.9676-2.825 0.9741-1.046 2.559-1.046 1.468 0 2.26 0.8572 0.7988 0.8572 0.7988 2.435zm-1.188-0.9352q-7e-3 -0.9611-0.4871-1.487-0.4741-0.526-1.448-0.526-0.9806 0-1.565 0.578-0.578 0.578-0.6559 1.435z"/>
  <path d="m102.1 138.3h-1.539l-2.059-2.786-2.072 2.786h-1.422l2.831-3.617-2.805-3.637h1.539l2.046 2.741 2.052-2.741h1.429l-2.851 3.572z"/>
  <path d="m109.5 134.8h-5.345q0 0.6689 0.2013 1.169 0.2013 0.4936 0.552 0.8118 0.3377 0.3117 0.7988 0.4676 0.4676 0.1559 1.026 0.1559 0.7403 0 1.487-0.2922 0.7533-0.2987 1.072-0.5845h0.0649v1.331q-0.6169 0.2598-1.26 0.4351t-1.351 0.1753q-1.805 0-2.818-0.9741-1.013-0.9806-1.013-2.779 0-1.779 0.9676-2.825 0.9741-1.046 2.559-1.046 1.468 0 2.26 0.8572 0.7988 0.8572 0.7988 2.435zm-1.188-0.9352q-6e-3 -0.9611-0.4871-1.487-0.4741-0.526-1.448-0.526-0.9806 0-1.565 0.578-0.578 0.578-0.6559 1.435z"/>
  <g transform="matrix(.974 0 0 .9632 146.9 117.7)">
   <g transform="matrix(.6214 0 0 .6368 -115.3 -96.15)">
    <path d="m23.01 30.3-21.3-19.11-0.01731 28.93 21.32 18.79z" fill="#af0000"/>
    <path d="m23.01 58.9-21.32-18.79-1e-7 28.57 21.32 18.82z" fill="#00348c"/>
    <path d="m23.01 87.51-21.32-18.82v27.58l21.32 18.8z" fill="#007b3e"/>
   </g>
   <g transform="matrix(.4775 0 0 .5259 -63.27 -59.5)">
    <path d="m-79.06 0.9893 124.3-0.01404c2.119 6.137 2.042 27.19 0 34.65h-124.3c-2.089-11.37-1.951-24.05-9.97e-4 -34.64z" fill="#3580ff"/>
    <path d="m-79.06 34.99 124.3-0.01404c2.119 6.137 2.042 27.19 0 34.65h-124.3c-2.089-11.37-1.951-24.05-9.98e-4 -34.64z" fill="#00b85d"/>
    <path d="m-79.06-33.01 124.3-0.01404c2.119 6.137 2.042 27.19 0 34.65h-124.3c-2.089-11.37-1.951-24.05-9.98e-4 -34.64z" fill="#ff1a1b"/>
    <g shape-rendering="auto">
     <g transform="translate(-81.1,-45.91)" fill="#ffcc43" stroke-width="1.024">
      <path d="m10.21 15.99c-0.5449-1.72e-4 -0.9866 0.4214-0.9864 0.9414v26.54c-1.807e-4 0.52 0.4416 0.9416 0.9864 0.9414h7.683c0.5449 1.72e-4 0.9866-0.4214 0.9864-0.9414v-26.54c1.8e-4 -0.52-0.4416-0.9416-0.9864-0.9414z" color="#000000" color-rendering="auto" dominant-baseline="auto" image-rendering="auto" solid-color="#000000"/>
      <path d="m10.21 49.99c-0.5449-1.72e-4 -0.9866 0.4214-0.9864 0.9414v26.54c-1.8e-4 0.52 0.4416 0.9416 0.9864 0.9414h7.683c0.5449 1.72e-4 0.9866-0.4214 0.9864-0.9414v-26.54c1.8e-4 -0.52-0.4416-0.9416-0.9864-0.9414z" color="#000000" color-rendering="auto" dominant-baseline="auto" image-rendering="auto" solid-color="#000000"/>
      <path d="m10.21 83.99c-0.5449-1.72e-4 -0.9866 0.4214-0.9864 0.9414v26.54c-1.8e-4 0.52 0.4416 0.9416 0.9864 0.9414h7.683c0.5449 1.8e-4 0.9866-0.4214 0.9864-0.9414v-26.54c1.8e-4 -0.52-0.4416-0.9416-0.9864-0.9414z" color="#000000" color-rendering="auto" dominant-baseline="auto" image-rendering="auto" solid-color="#000000"/>
     </g>
    </g>
   </g>
   <path d="m-101-76.86-13.24-12.17 58.32-0.0422 14.27 12.21z" fill="#ff6767" stroke-width=".6291"/>
   <path d="m-92.2-89.01 15.16 0.032c1.232 3e-3 16.23 11.48 16.23 12.23v54.96c0 0.7546-0.5758 1.362-1.291 1.362h-14c-0.7153 0-1.291-0.6074-1.291-1.362v-54.96c0-0.1348-17.02-12.27-14.8-12.27z" fill="#ff954a" stroke-width=".5061"/>
   <g transform="matrix(.6214 0 0 .6368 -115.3 -96.15)">
    <path d="m1.701 18.98 15.41 13.79v13.61l-15.46-13.03c0.4452-4.787 0.3791-9.574 0.0486-14.36z" fill="#ffcbcb"/>
    <path d="m1.701 47.34 15.41 13.79v13.61l-15.46-13.03c0.4452-4.787 0.3791-9.574 0.0486-14.36z" fill="#ccdfff"/>
    <path d="m1.632 75.36 15.41 13.79v13.61l-15.46-13.03c0.4452-4.787 0.3791-9.574 0.0486-14.36z" fill="#cbffe5"/>
   </g>
   <g stroke-width=".6291">
    <path d="m-60.82-21.77c4.3e-5 0.74-0.5758 1.335-1.291 1.335h-14c-0.7153 0-1.291-0.5959-1.291-1.335v-46.95c1.326-5.301 5.763-5.664 8.483-5.654 2.58 6e-3 6.699 0.8253 8.11 5.095z" fill="#ffa853"/>
    <path d="m-59.06-68.46-1.795 0.0164-0.4206 13.51c-0.0061 0.9139-0.6059 1.015-1.091 0.9928-4.593-0.02218-9.017-0.0445-13.61-0.0668-0.5004-0.0065-0.944-0.3355-0.9626-0.7158l-0.4653-13.7-0.4383 6e-3 -1.183 0.0175-0.03637 7e-3c-0.4162 0.0826-0.7519 0.3331-0.9253 0.6534-0.1729 0.3202-0.2015 0.6489-0.2192 0.9336l-9.62e-4 9e-3 -0.4579 14.93 0.0056 0.04109c0.09514 0.7744 0.2887 1.562 0.7513 2.254 0.463 0.6929 1.186 1.264 2.247 1.644 5.634 0.07967 11.29 0.08648 16.93 0.1181l0.04383-0.0092c1.81-0.3908 2.805-1.836 3.138-3.694l0.01026-0.05443-0.3674-15.43-0.0037-0.0308c-0.08738-0.6368-0.5009-1.165-1.073-1.384z" color="#000000" color-rendering="auto" dominant-baseline="auto" fill="#fff" image-rendering="auto" solid-color="#000000"/>
    <path d="m-69-62.08c-1.047-0.0176-2.135 0.6833-2.435 1.829-0.2288 0.7992-0.03664 1.639-0.01435 2.456 0.1793 2.597 0.3996 5.191 0.5548 7.788 1.254 3.5e-4 2.509 6.99e-4 3.763 1e-3 0.2366-3.074 0.4794-6.148 0.7128-9.228 0.07501-1.067-0.4748-2.165-1.384-2.582-0.3746-0.1868-0.7874-0.2745-1.198-0.2714z" color="#000000" color-rendering="auto" dominant-baseline="auto" fill="#b3672b" image-rendering="auto" solid-color="#000000"/>
    <path d="m-68.96-60.73c-0.8228 0.02045-1.74 0.1874-2.314 0.8992-0.3064 0.4004-0.253 0.9355-0.2043 1.418l0.5749 7.394c1.269-2e-3 2.538-0.0041 3.807-0.0062 0.2235-2.68 0.456-5.359 0.6736-8.043 0.01219-0.7183-0.562-1.26-1.147-1.445-0.4459-0.169-0.9216-0.2234-1.391-0.2198z" color="#000000" color-rendering="auto" dominant-baseline="auto" fill="#fff" image-rendering="auto" solid-color="#000000"/>
   </g>
   <path d="m-97-45.83h52.89c2.324 0 4.194 2.388 4.194 5.355v15.39c0 2.967-1.871 5.355-4.194 5.355h-52.89c-2.324 0-4.194-2.388-4.194-5.355v-15.39c0-2.967 1.871-5.355 4.194-5.355z" fill="#fff" stroke-linecap="round" stroke-linejoin="round" stroke-width="3.223" style="paint-order:stroke fill markers"/>
   <g transform="matrix(.6344 0 0 .712 -115.6 -104.9)" fill="#00b85d" stroke-linejoin="round" stroke-width="5" style="paint-order:stroke fill markers" aria-label="RAR">
    <path d="m44.49 96.52q0-1.094-0.4492-1.875t-1.543-1.23q-0.7617-0.3125-1.777-0.3711-1.016-0.07813-2.363-0.07813h-2.715v7.832h2.305q1.797 0 3.008-0.1758 1.211-0.1758 2.031-0.8008 0.7812-0.6055 1.133-1.328 0.3711-0.7422 0.3711-1.973zm11.7 20.18h-9.16l-7.93-10.66h-3.457v10.66h-7.461v-29.08h12.58q2.578 0 4.434 0.293 1.855 0.293 3.477 1.27 1.641 0.9766 2.598 2.539 0.9766 1.543 0.9766 3.887 0 3.223-1.504 5.254-1.484 2.031-4.258 3.379z"/>
    <path d="m86.34 116.7h-7.754l-2.012-5.879h-10.78l-2.012 5.879h-7.559l10.74-29.08h8.633zm-11.58-11.21-3.574-10.43-3.574 10.43z"/>
    <path d="m106.8 96.52q0-1.094-0.4492-1.875t-1.543-1.23q-0.7617-0.3125-1.777-0.3711-1.016-0.07813-2.363-0.07813h-2.715v7.832h2.305q1.797 0 3.008-0.1758 1.211-0.1758 2.031-0.8008 0.7812-0.6055 1.133-1.328 0.3711-0.7422 0.3711-1.973zm11.7 20.18h-9.16l-7.93-10.66h-3.457v10.66h-7.461v-29.08h12.58q2.578 0 4.434 0.293 1.855 0.293 3.477 1.27 1.641 0.9766 2.598 2.539 0.9766 1.543 0.9766 3.887 0 3.223-1.504 5.254-1.484 2.031-4.258 3.379z"/>
   </g>
  </g>
 </g>
 <g transform="matrix(.2978 0 0 .3106 71.55 59.39)" clip-rule="evenodd" fill="#fff" fill-rule="evenodd" image-rendering="optimizeQuality" shape-rendering="geometricPrecision" stroke-linejoin="round" stroke-width="14.97" style="paint-order:stroke fill markers">
  <path d="m62.87 72.08-13.71 13.56-33.47-12.16 0.2962 35.58 46.8 17.64 47.4-17.03v-40.44l14.81-6.081-15.4-16.12-18.37-6.385 0.2962 5.816 11.26 3.914-39.7 15.06-39.1-14.45 11.26-4.257v-6.385l-19.25 7.906-15.11 15.2 47.4 17.64 14.81-15.2 14.81 15.2 27.25-10.03 0.2962 34.36-42.06 15.51z" fill="#00b85d" stroke="#fff" stroke-linejoin="round" stroke-width="14.97" style="paint-order:stroke fill markers"/>
  <g clip-rule="nonzero" fill-rule="nonzero" shape-rendering="auto">
   <path d="m65.98-2.006c-1.721-0.6463-3.62-0.6366-5.334 0.02734l-24.55 9.506c-2.847 1.102-4.739 3.824-4.781 6.877l-0.4199 31.07c-0.04189 3.119 1.856 5.938 4.762 7.072l24.51 9.568c1.725 0.6734 3.639 0.6831 5.371 0.02734l25.16-9.525c2.907-1.101 4.831-3.884 4.834-6.992l0.02539-31.33c-0.0045-0.02281-9e-3 -0.0456-0.01367-0.06836-0.01033-0.06003-0.0214-0.1199-0.0332-0.1797-0.07541-1.274-0.4755-2.508-1.162-3.584-0.1371-0.2433-0.2877-0.4787-0.4512-0.7051-0.7878-1.03-1.83-1.838-3.023-2.344-0.05601-0.04443-0.1127-0.08805-0.1699-0.1309z" color="#000000" fill="#fff" style="-inkscape-stroke:none"/>
   <path d="m84.01 15.66 4.07-1.372-0.0244 31.33-25.16 9.524-24.51-9.568 0.4189-31.07 24.55-9.506 24.73 9.284-24.86 10.13-0.1594 25.81 20.95-7.963z" color="#000000" fill="#00b85d" style="-inkscape-stroke:none"/>
   <path d="m69.05 114.7 32.79-11.42-0.9026-27.35-24.67 8.882-8.575-5.78z" fill="#fff"/>
  </g>
 </g>
</svg>
