<svg xmlns="http://www.w3.org/2000/svg" viewBox="0 0 26 26" width="40" height="40">
<path fill="#fff" d="M 8 0 C 6.34375 0 5 1.34375 5 3 L 5 23 C 5 24.65625 6.34375 26 8 26 L 19 26 C 20.65625 26 22 24.65625 22 23 L 22 3 C 22 1.34375 20.65625 0 19 0 Z M 12.5 1 L 14.5 1 C 14.777344 1 15 1.222656 15 1.5 C 15 1.777344 14.777344 2 14.5 2 L 12.5 2 C 12.222656 2 12 1.777344 12 1.5 C 12 1.222656 12.222656 1 12.5 1 Z M 7.5 3 L 19.5 3 C 19.777344 3 20 3.222656 20 3.5 L 20 20.5 C 20 20.777344 19.777344 21 19.5 21 L 7.5 21 C 7.222656 21 7 20.777344 7 20.5 L 7 3.5 C 7 3.222656 7.222656 3 7.5 3 Z M 14.9375 8 C 14.527344 8.027344 14.0625 8.28125 13.78125 8.625 C 13.523438 8.933594 13.292969 9.394531 13.375 9.84375 C 13.824219 9.855469 14.292969 9.597656 14.5625 9.25 C 14.816406 8.925781 15.007813 8.46875 14.9375 8 Z M 12.15625 9.78125 C 11.566406 9.78125 10.929688 10.167969 10.53125 10.78125 C 9.96875 11.644531 10.0625 13.238281 10.96875 14.625 C 11.292969 15.117188 11.746094 15.683594 12.3125 15.6875 C 12.816406 15.695313 12.941406 15.378906 13.625 15.375 C 14.308594 15.371094 14.433594 15.691406 14.9375 15.6875 C 15.503906 15.683594 15.988281 15.089844 16.3125 14.59375 C 16.542969 14.238281 16.632813 14.058594 16.8125 13.65625 C 15.496094 13.160156 15.261719 11.273438 16.5625 10.5625 C 16.164063 10.066406 15.617188 9.78125 15.09375 9.78125 C 14.398438 9.78125 14.109375 10.125 13.625 10.125 C 13.128906 10.125 12.757813 9.78125 12.15625 9.78125 Z M 13.5 22.21875 C 14.207031 22.21875 14.78125 22.792969 14.78125 23.5 C 14.78125 24.207031 14.207031 24.78125 13.5 24.78125 C 12.792969 24.78125 12.21875 24.207031 12.21875 23.5 C 12.21875 22.792969 12.792969 22.21875 13.5 22.21875 Z"></path></svg>