<svg xmlns="http://www.w3.org/2000/svg" viewBox="0 -7 75 80" width="200" height="200"><path d="M75 1v45H1V1h74m1-1H0v54h30.002L30 59.999h-8.725s-2.074.305-3.5 1.75c-1.552 1.572-1.772 3.501-1.772 3.501L16 66h44l-.006-.675s-.039-1.78-1.619-3.401c-2.095-2.15-4.225-1.955-4.225-1.955l-8.147.03V54H76z" fill="#55576b"/>
<path d="M39.797 11.25a3.022 2.205 42.977 1 0 4.422 4.12 3.022 2.205 42.977 1 0-4.422-4.12z" fill="#fff"/>
<path d="M49.264 33.213v-12c0-6.629-5.373-12-12-12s-12 5.371-12 12v12c0 2.208-1.792 4-4 4h32c-2.208 0-4-1.792-4-4zM40.55 12.498c.52-.52 1.576-.309 2.357.472.781.781.992 1.837.472 2.357-.52.52-1.576.31-2.357-.472-.78-.78-.994-1.837-.472-2.357z" fill="#55576b"/>
<path d="M33.406 15.928a4.071 5.429 0 1 0 0 10.858 4.071 5.429 0 1 0 0-10.858z" fill="#fff"/>
<path d="M33.002 19.928a1.333 2 0 1 0 0 4 1.333 2 0 1 0 0-4z" fill="#36404d"/><path d="M41.264 15.928a4.071 5.429 0 1 0 0 10.858 4.071 5.429 0 1 0 0-10.858z" fill="#fff"/>
<path d="M41.668 19.928a1.333 2 0 1 0 0 4 1.333 2 0 1 0 0-4z" fill="#36404d"/>
<path d="M45.335 28.428c0 2.485-4.638 4.5-8 4.5s-8-2.015-8-4.5c1.263-2.448 5.866-4.5 8-4.5 2.134 0 6.733 2.083 8 4.5z" fill="#ffeea3"/></svg>