<svg version="1.1" viewBox="0 0 304.3 89.04" xmlns="http://www.w3.org/2000/svg">
 <g transform="matrix(.8595 0 0 .9249 25.18 -3.037)" fill="#fff">
  <g transform="matrix(1.057,0,0,1.029,-4.671,-11.99)">
   <path id="WinRAR" d="m89.97 75.71-10.05-37.37h5.14l5.76 24.5c0.6199 2.566 1.154 5.114 1.601 7.646 0.9643-3.993 1.533-6.295 1.705-6.907l7.207-25.23h6.044l5.424 18.91c1.36 4.689 2.342 9.097 2.945 13.23 0.4822-2.362 1.111-5.072 1.886-8.13l5.941-24.01h5.037l-10.38 37.37h-4.83l-7.982-28.47c-0.6716-2.379-1.068-3.84-1.188-4.384-0.3961 1.716-0.7663 3.177-1.111 4.384l-8.033 28.47zm42.75-32.09v-5.275h4.649v5.275zm0 32.09v-27.07h4.649v27.07zm11.73 0v-27.07h4.184v3.849c2.015-2.974 4.925-4.46 8.731-4.46 1.653 0 3.173 0.2931 4.559 0.8793s2.424 1.355 3.113 2.307c0.6888 0.9518 1.171 2.081 1.446 3.39 0.1722 0.8496 0.2583 2.337 0.2583 4.46v16.64h-4.649v-16.46c0-1.869-0.1808-3.267-0.5424-4.193-0.3616-0.9258-1.003-1.665-1.924-2.217-0.9213-0.5522-2.002-0.8283-3.242-0.8283-1.98 0-3.689 0.6202-5.127 1.861s-2.157 3.594-2.157 7.06v14.78z" stroke-width=".9467"/>
   <path id="Combined-Shape" d="m183 34.02h23.85c3.768 0 6.525 1.071 8.269 3.213 0.4666 0.5856 1.008 1.472 1.162 2.709l-2.828 4.858 1.806 8.297c-1.849 2.436-5.103 4.411-9.168 5.094 2.408 2.123 3.267 7.962 6.617 17.52h-12.54c-1.047-3.014-2.281-6.308-3.703-9.882s-2.49-5.645-3.206-6.213c-0.7153-0.5687-1.579-0.8531-2.591-0.8531h-0.628l-3.271 16.95h-11.91zm8.583 16.95h2.251c3.768 0 6.206-0.1896 7.314-0.5687 1.108-0.3792 1.932-1.019 2.473-1.919 0.5408-0.9005 0.8112-1.768 0.8112-2.602 0-1.062-0.3227-1.896-0.9683-2.502-0.6455-0.6066-2.05-0.91-4.213-0.91h-6.019zm60.97 24.74h-10.28l-0.5234-6.825h-12.51l-2.983 6.825h-12.77l11.39-21.91-2.731-7.563 10.42-7.236 2.59-4.982h16.34l-1.634 8.973-2.812 6.041 4.075 11.39zm-11.56-15.67-1.178-15.19h-0.1047l-6.595 15.19zm25.38-26.02h21.83c3.768 0 6.525 1.071 8.269 3.213 1.745 2.142 2.617 4.72 2.617 7.735 0 3.261-0.9246 6.109-2.774 8.545-1.849 2.436-4.806 3.995-8.871 4.678 2.408 2.123 5.286 7.962 8.636 17.52h-12.54c-1.047-3.014-2.281-6.308-3.703-9.882s-2.49-5.645-3.206-6.213c-0.7153-0.5687-1.579-0.8531-2.591-0.8531h-0.6281l-3.271 16.95h-11.91l2.946-16.6-1.993-8.865 4.942-4.722zm8.583 16.95h2.251c3.768 0 6.206-0.1896 7.314-0.5687 1.108-0.3792 1.932-1.019 2.473-1.919 0.5408-0.9005 0.8112-1.768 0.8112-2.602 0-1.062-0.3227-1.896-0.9683-2.502-0.6455-0.6066-2.05-0.91-4.213-0.91h-6.019z"/>
  </g>
 </g>
 <g transform="matrix(.5951 0 0 .5955 9.519 6.892)">
  <path d="m23.01 30.3-21.3-19.11-0.01731 28.93 21.32 18.79z" fill="#af0000"/>
  <path d="m23.01 58.9-21.32-18.79-1e-7 28.57 21.32 18.82z" fill="#00348c"/>
  <path d="m23.01 87.51-21.32-18.82v27.58l21.32 18.8z" fill="#007b3e"/>
 </g>
 <g transform="matrix(.4572 0 0 .4918 59.35 41.16)">
  <path d="m-79.06 0.9893 124.3-0.01404c2.119 6.137 2.042 27.19 0 34.65h-124.3c-2.089-11.37-1.951-24.05-9.97e-4 -34.64z" fill="#3580ff"/>
  <path d="m-79.06 34.99 124.3-0.01404c2.119 6.137 2.042 27.19 0 34.65h-124.3c-2.089-11.37-1.951-24.05-9.98e-4 -34.64z" fill="#00b85d"/>
  <path d="m-79.06-33.01 124.3-0.01404c2.119 6.137 2.042 27.19 0 34.65h-124.3c-2.089-11.37-1.951-24.05-9.98e-4 -34.64z" fill="#ff1a1b"/>
  <g shape-rendering="auto">
   <g transform="translate(-81.1,-45.91)" fill="#ffcc43" stroke-width="1.024">
    <path d="m10.21 15.99c-0.5449-1.72e-4 -0.9866 0.4214-0.9864 0.9414v26.54c-1.807e-4 0.52 0.4416 0.9416 0.9864 0.9414h7.683c0.5449 1.72e-4 0.9866-0.4214 0.9864-0.9414v-26.54c1.8e-4 -0.52-0.4416-0.9416-0.9864-0.9414z" color="#000000" color-rendering="auto" dominant-baseline="auto" image-rendering="auto" solid-color="#000000"/>
    <path d="m10.21 49.99c-0.5449-1.72e-4 -0.9866 0.4214-0.9864 0.9414v26.54c-1.8e-4 0.52 0.4416 0.9416 0.9864 0.9414h7.683c0.5449 1.72e-4 0.9866-0.4214 0.9864-0.9414v-26.54c1.8e-4 -0.52-0.4416-0.9416-0.9864-0.9414z" color="#000000" color-rendering="auto" dominant-baseline="auto" image-rendering="auto" solid-color="#000000"/>
    <path d="m10.21 83.99c-0.5449-1.72e-4 -0.9866 0.4214-0.9864 0.9414v26.54c-1.8e-4 0.52 0.4416 0.9416 0.9864 0.9414h7.683c0.5449 1.8e-4 0.9866-0.4214 0.9864-0.9414v-26.54c1.8e-4 -0.52-0.4416-0.9416-0.9864-0.9414z" color="#000000" color-rendering="auto" dominant-baseline="auto" image-rendering="auto" solid-color="#000000"/>
   </g>
  </g>
 </g>
 <path d="m23.2 24.93-12.68-11.38 55.84-0.03947 13.67 11.42z" fill="#ff6767" stroke-width=".5953"/>
 <path d="m31.65 13.56 14.51 0.02997c1.179 0.0025 15.54 10.73 15.54 11.44v51.4c0 0.7057-0.5514 1.273-1.236 1.273h-13.41c-0.6849 0-1.236-0.568-1.236-1.273v-51.4c0-0.126-16.3-11.47-14.17-11.47z" fill="#ff954a" stroke-width=".4789"/>
 <g transform="matrix(.5951 0 0 .5955 9.519 6.892)">
  <path d="m1.701 18.98 15.41 13.79v13.61l-15.46-13.03c0.4452-4.787 0.3791-9.574 0.0486-14.36z" fill="#ffcbcb"/>
  <path d="m1.701 47.34 15.41 13.79v13.61l-15.46-13.03c0.4452-4.787 0.3791-9.574 0.0486-14.36z" fill="#ccdfff"/>
  <path d="m1.632 75.36 15.41 13.79v13.61l-15.46-13.03c0.4452-4.787 0.3791-9.574 0.0486-14.36z" fill="#cbffe5"/>
 </g>
 <g transform="translate(4.703 -.08129)" stroke-width=".5953">
  <path d="m57 76.53c4.2e-5 0.692-0.5514 1.249-1.236 1.249h-13.41c-0.6849 0-1.236-0.5573-1.236-1.249v-43.91c1.269-4.957 5.519-5.297 8.123-5.287 2.47 0.0059 6.415 0.7718 7.766 4.764z" fill="#ffa853"/>
  <path d="m58.68 32.87-1.719 0.01536-0.4028 12.63c-0.0059 0.8546-0.5802 0.9493-1.045 0.9285-4.398-0.02072-8.635-0.04163-13.03-0.06248-0.4792-6e-3 -0.9039-0.3138-0.9218-0.6694l-0.4456-12.82-1.552 0.02223-0.03483 0.0068c-0.3985 0.07724-0.7201 0.3115-0.8861 0.611-0.1656 0.2994-0.193 0.6069-0.2099 0.8731l-8.62e-4 0.0087-0.4385 13.96 0.0054 0.03842c0.09111 0.7242 0.2764 1.461 0.7195 2.108 0.4433 0.648 1.136 1.182 2.151 1.538 5.395 0.0745 10.81 0.08087 16.21 0.1105l0.04197-0.0087c1.733-0.3655 2.686-1.717 3.005-3.455l0.0098-0.05091-0.3518-14.43-0.0036-0.02882c-0.08367-0.5955-0.4796-1.09-1.028-1.295z" color="#000000" color-rendering="auto" dominant-baseline="auto" fill="#fff" image-rendering="auto" solid-color="#000000"/>
  <path d="m49.17 38.83c-1.002-0.01645-2.044 0.639-2.332 1.71-0.2191 0.7474-0.03509 1.533-0.01374 2.296 0.1717 2.429 0.3826 4.854 0.5313 7.284 1.201 3.27e-4 2.402 5.95e-4 3.603 0.0012 0.2266-2.875 0.459-5.749 0.6826-8.629 0.07183-0.9981-0.4547-2.024-1.325-2.414-0.3587-0.1747-0.754-0.2567-1.147-0.2538z" color="#000000" color-rendering="auto" dominant-baseline="auto" fill="#b3672b" image-rendering="auto" solid-color="#000000"/>
  <path d="m49.2 40.1c-0.7879 0.01912-1.666 0.1753-2.215 0.8409-0.2934 0.3745-0.2423 0.8749-0.1957 1.326l0.5505 6.914c1.215-0.0019 2.43-0.0035 3.645-0.0059 0.2141-2.507 0.4366-5.012 0.6451-7.522 0.01168-0.6718-0.5381-1.178-1.098-1.351-0.427-0.158-0.8825-0.2089-1.332-0.2055z" color="#000000" color-rendering="auto" dominant-baseline="auto" fill="#fff" image-rendering="auto" solid-color="#000000"/>
 </g>
 <path d="m27.06 53.95h50.65c2.225 0 4.016 2.234 4.016 5.008v14.4c0 2.774-1.791 5.008-4.016 5.008h-50.65c-2.225 0-4.016-2.234-4.016-5.008v-14.4c0-2.774 1.791-5.008 4.016-5.008z" fill="#fff" stroke-linecap="round" stroke-linejoin="round" stroke-width="3.05" style="paint-order:stroke fill markers"/>
 <g transform="matrix(.6075 0 0 .6658 9.245 -1.244)" fill="#00b85d" stroke-linejoin="round" stroke-width="5" style="paint-order:stroke fill markers" aria-label="RAR">
  <path d="m44.49 96.52q0-1.094-0.4492-1.875t-1.543-1.23q-0.7617-0.3125-1.777-0.3711-1.016-0.07813-2.363-0.07813h-2.715v7.832h2.305q1.797 0 3.008-0.1758t2.031-0.8008q0.7812-0.6055 1.133-1.328 0.3711-0.7422 0.3711-1.973zm11.7 20.18h-9.16l-7.93-10.66h-3.457v10.66h-7.461v-29.08h12.58q2.578 0 4.434 0.293 1.855 0.293 3.477 1.27 1.641 0.9766 2.598 2.539 0.9766 1.543 0.9766 3.887 0 3.223-1.504 5.254-1.484 2.031-4.258 3.379z"/>
  <path d="m86.34 116.7h-7.754l-2.012-5.879h-10.78l-2.012 5.879h-7.559l10.74-29.08h8.633zm-11.58-11.21-3.574-10.43-3.574 10.43z"/>
  <path d="m106.8 96.52q0-1.094-0.4492-1.875t-1.543-1.23q-0.7617-0.3125-1.777-0.3711-1.016-0.07813-2.363-0.07813h-2.715v7.832h2.305q1.797 0 3.008-0.1758t2.031-0.8008q0.7812-0.6055 1.133-1.328 0.3711-0.7422 0.3711-1.973zm11.7 20.18h-9.16l-7.93-10.66h-3.457v10.66h-7.461v-29.08h12.58q2.578 0 4.434 0.293 1.855 0.293 3.477 1.27 1.641 0.9766 2.598 2.539 0.9766 1.543 0.9766 3.887 0 3.223-1.504 5.254-1.484 2.031-4.258 3.379z"/>
 </g>
 <text x="100.19221" y="72.304092" fill="#ffffff" font-family="sans-serif" font-size="13px" font-weight="bold" style="line-height:1.25" xml:space="preserve"><tspan x="100.19221" y="72.304092" fill="#ffffff" font-family="Arial" font-size="13px" font-weight="900">НЕОФИЦИАЛЬНЫЙ САЙТ</tspan></text>
 <g transform="translate(.9502 5.226)" stroke="#000" stroke-width=".1266">
  <path d="m264.2 16.98 19.64-1.083-0.5632 5.413-18.79 1.303z" fill="#fff"/>
  <path d="m263.6 22.39 19.64-1.083-0.5632 5.413-18.79 1.303z" fill="#296aee"/>
  <path d="m263.1 27.8 19.64-1.083-0.5632 5.413-18.79 1.303z" fill="#d61419"/>
 </g>
 <g transform="matrix(.3837 0 0 .3928 163.7 15.34)" fill="#fff" stroke-width=".5637" aria-label="RU">
  <path d="m281.8 35.22q0-0.6166-0.2532-1.057t-0.8698-0.6937q-0.4294-0.1762-1.002-0.2092-0.5726-0.04404-1.332-0.04404h-1.53v4.415h1.299q1.013 0 1.696-0.0991t1.145-0.4514q0.4404-0.3413 0.6386-0.7487 0.2092-0.4184 0.2092-1.112zm6.595 11.37h-5.164l-4.47-6.012h-1.949v6.012h-4.206v-16.39h7.091q1.453 0 2.499 0.1652t1.96 0.7157q0.9249 0.5505 1.464 1.431 0.5505 0.8698 0.5505 2.191 0 1.817-0.8478 2.962-0.8368 1.145-2.4 1.905z"/>
  <path d="m304.6 40.66q0 3.039-1.85 4.658t-5.45 1.619-5.45-1.619q-1.839-1.619-1.839-4.647v-10.47h4.25v10.23q0 1.707 0.7157 2.543 0.7157 0.8368 2.323 0.8368 1.586 0 2.312-0.8038 0.7377-0.8038 0.7377-2.577v-10.23h4.25z"/>
 </g>
</svg>
