<svg version="1.1" viewBox="0 0 182.4 53.66" xmlns="http://www.w3.org/2000/svg">
<style type="text/css">.custom-controls {
height: 64px;
fill: #fff;
}

.control-icon {
opacity: 0;
animation: icon-fade-in-out 4s ease-in-out infinite;
animation-fill-mode: forwards;
}

.stop {
animation-delay: .3s;
}

.play {
animation-delay: .5s;
}

.gamepad {
animation-delay: .7s;
padding: 0 0 0 20px;
}

@keyframes icon-fade-in-out {
0% {
opacity: 0;
}

10% {
opacity: 1;
}

80% {
opacity: 1;
}

90% {
opacity: 0;
}

100% {
opacity: 0;
}
}</style>
<g transform="matrix(.1053 0 0 .1083 117.2 274)">
<path d="m-424.5-2291-50.7-187.8c-1.095-4.057 1.783-8.094 5.768-8.094h301.1c2.726 0 5.109 1.945 5.802 4.735l48.55 195.5z" fill="#c69f00" stroke-width="1.029"/>
<path d="m-162.5-2297 50.36-106.6c1.016-2.152 3.094-3.51 5.366-3.51h95.58c4.459 0 7.36 4.967 5.366 9.189l-47.68 100.9h-109z" fill="#ebbd00" stroke-width="1.029"/>
<g transform="matrix(9.498 0 0 9.231 -1854 -2091)" style="">
<g transform="matrix(.04333 0 0 .04515 162.9 -21.15)" fill="#fff">
<g fill="#fff">
<g fill="#fff">
<g fill="#fff">
<g transform="matrix(7.397 0 0 6.641 1214 -208.1)">
<path class="st1" d="m89.74 24.5c-1.1 0-2 .9-2 2v1.2c0 1.1-.9 2-2 2h-22.8c-1.1 0-2 .9-2 2v25c0 1.1.9 2 2 2h46c1.1 0 2-.9 2-2v-30.2c0-1.1-.9-2-2-2z" fill="#fbd000"/>
<path class="st2" d="m106.4 32h-12.7c-1.1 0-2-.9-2-2s.9-2 2-2h12.7c1.1 0 2 .9 2 2s-.9 2-2 2z" fill="#fff"/>
<path class="st4" d="m109.2 59.7h-46.3c-1.7 0-3-1.3-3-3v-25c0-1.7 1.3-3 3-3h22.9c.6 0 1-.4 1-1v-.7c0-1.7 1.3-3 3-3h19.4c1.7 0 3 1.3 3 3v29.7c0 1.6-1.3 3-3 3zm-46.3-29c-.6 0-1 .4-1 1v25c0 .6.4 1 1 1h46.3c.6 0 1-.4 1-1v-29.7c0-.6-.4-1-1-1h-19.5c-.6 0-1 .4-1 1v.7c0 1.7-1.3 3-3 3z" fill="#7c4119"/>
<path class="st1" d="m79.44 24.5c-1.1 0-2 .9-2 2v1.2c0 1.1-.9 2-2 2h-22.9c-1.1 0-2 .9-2 2v25c0 1.1.9 2 2 2h46c1.1 0 2-.9 2-2v-30.2c0-1.1-.9-2-2-2z" fill="#fbd000"/>
<path class="st2" d="m95.74 32h-12.6c-1.1 0-2-.9-2-2s.9-2 2-2h12.7c1.1 0 2 .9 2 2s-1 2-2.1 2z" fill="#fff"/>
<path class="st4" d="m98.24 59.7h-45.7c-1.7 0-3-1.3-3-3v-24.7c0-1.7 1.3-3 3-3h22.9c.6 0 1-.4 1-1v-1c0-1.7 1.3-3 3-3h18.8c1.7 0 3 1.3 3 3v29.7c0 1.6-1.3 3-3 3zm-45.7-28.7c-.6 0-1 .4-1 1v24.7c0 .6.4 1 1 1h45.7c.6 0 1-.4 1-1v-29.7c0-.6-.4-1-1-1h-18.8c-.6 0-1 .4-1 1v1c0 1.7-1.3 3-3 3z" fill="#7c4119"/>
<path class="st1" d="m70.24 24.5c-1.1 0-2.2.9-2.4 2l-.2 1.5c-.2 1.1-1.3 2-2.4 2h-22.9c-1.1 0-2 .9-2 2v24.7c0 1.1.9 2 2 2h46c1.1 0 2-.9 2-2v-30.2c0-1.1-.9-2-2-2z" fill="#fbd000"/>
<path class="st2" d="m85.64 32h-12.7c-1.1 0-2-.9-2-2s.9-2 2-2h12.7c1.1 0 2 .9 2 2s-.9 2-2 2z" fill="#fff"/>
<path class="st4" d="m88.24 60h-46c-1.7 0-3-1.3-3-3v-25c0-1.7 1.3-2 3-2l22.9-1c.6 0 1-.4 1-1v-1c0-1.7 1.3-3 3-3h19.1c1.7 0 3 1.3 3 3v30c0 1.7-1.3 3-3 3zm-46-29c-.6 0-1 .4-1 1v25c0 .6.4 1 1 1h46c.6 0 1-.4 1-1v-30c0-.6-.4-1-1-1h-19.1c-.6 0-1 .4-1 1v1c0 1.7-1.3 3-3 3z" fill="#7c4119"/>
<path class="st1" d="m59.14 25c-1.1 0-2 .9-2 2v1c0 1.1-.9 2-2 2h-22.9c-1.1 0-2 .9-2 2v24.7c0 1.1.9 2 2 2h46c1.1 0 2-.9 2-2v-30.2c0-1.1-.9-2-2-2z" fill="#fbd000"/>
<path class="st4" d="m78.24 59.7h-46c-1.7 0-3-1.3-3-3v-24.7c0-1.7 1.3-3 3-3h22c.7 0 1.6-.6 1.8-1.2l.5-1.3c.6-1.4 2.2-2.5 3.7-2.5h18c1.7 0 3 1.3 3 3v29.7c0 1.6-1.3 3-3 3zm-46-28.7c-.6 0-1 .4-1 1v24.7c0 .6.4 1 1 1h46c.6 0 1-.4 1-1v-29.7c0-.6-.4-1-1-1h-18c-.7 0-1.6.6-1.8 1.2l-.5 1.3c-.5 1.4-2.2 2.5-3.7 2.5z" fill="#7c4119"/>
<g fill="#fff" stroke-width="1.04">
<path class="st5" d="m-3.852-38.27c-1.9 0-3.5-1.729-3.5-3.783 0-2.161 1.6-3.783 3.5-3.783s3.5 1.729 3.5 3.783-1.6 3.783-3.5 3.783zm0-5.836c-1 0-1.9.8646-1.9 2.053 0 1.081.8 2.053 1.9 2.053 1 0 1.9-.8646 1.9-2.053s-.9-2.053-1.9-2.053z" opacity=".5"/>
<path class="st5" d="m84.19-.9223c-2.2 0-3.9-1.945-3.9-4.215 0-2.378 1.8-4.215 3.9-4.215s3.9 1.837 3.9 4.107c0 2.378-1.8 4.323-3.9 4.323zm0-6.592c-1.2 0-2.1.9727-2.1 2.27s.9 2.27 2.1 2.27 2.1-.9727 2.1-2.27c0-1.189-1-2.27-2.1-2.27z" opacity=".5"/>
<path class="st5" d="m50.73-41.86c0-.4323-.4-.8646-1-.9727l-1.9-.3242c-.5-.1081-1.1-.6484-1.1-1.189l-.3-2.053c-.1-.5404-.5-1.081-.9-1.081s-.8.4323-.9 1.081l-.2 2.053c-.1.5404-.6 1.189-1.1 1.189l-1.9.3242c-.5.1081-1 .5404-1 .9727s.4.8646 1 .9727l1.9.3242c.5.1081 1.1.6484 1.1 1.189l.3 2.053c.1.5404.5 1.081.9 1.081s.8-.4323.9-1.081l.3-2.27c.1-.5404.6-1.081 1.1-1.189l1.8-.1081c.6-.2161 1-.6484 1-.9727z" opacity=".5"/>
<path class="st5" d="m109.4-32.01c0-.4323-.4-.8646-1-.9727l-1.9-.3242c-.5-.1081-1.1-.6484-1.1-1.189l-.3-2.053c-.1-.5404-.5-1.081-.9-1.081s-.8.4323-.9 1.081l-.3 2.053c-.1.5404-.6 1.189-1.1 1.189l-1.9.3242c-.5.1081-1 .5404-1 .9727s.4.8646 1 .9727l1.9.3242c.5.1081 1.1.6484 1.1 1.189l.3 2.053c.1.5404.5 1.081.9 1.081s.8-.4323.9-1.081l.3-2.27c.1-.5404.6-1.081 1.1-1.189l1.8-.1081c.7-.2161 1.1-.6484 1.1-.9727z" opacity=".5"/>
</g>
<path class="st6" d="m23.94 61c0-4.4 3.6-8 8-8h56.3v60h-56.3c-4.4 0-8-3.6-8-8z" fill="#eaeaea"/>
<path class="st7" d="m88.24 53h20c4.4 0 8 3.6 8 8v44c0 4.4-3.6 8-8 8h-20z" fill="#d4d6d6"/>
<path class="st2" d="m75.24 84c0 2.2-1.8 4-4 4h-30c-2.2 0-4-1.8-4-4v-6c0-2.2 1.8-4 4-4h30c2.2 0 4 1.8 4 4z" fill="#fff"/>
<g fill="#9e928a">
<path class="st8" d="m60.04 80h-18.8c-.6 0-1-.4-1-1s.4-1 1-1h18.8c.6 0 1 .4 1 1s-.5 1-1 1z"/>
<path class="st8" d="m70.74 80h-6.5c-.6 0-1-.4-1-1s.4-1 1-1h6.5c.6 0 1 .4 1 1s-.5 1-1 1z"/>
<path class="st8" d="m53.14 85h-11.9c-.6 0-1-.4-1-1s.4-1 1-1h11.9c.6 0 1 .4 1 1s-.4 1-1 1z"/>
<path class="st8" d="m66.84 85h-9.7c-.6 0-1-.4-1-1s.4-1 1-1h9.7c.6 0 1 .4 1 1s-.4 1-1 1z"/>
</g>
<path class="st7" d="m80.24 101h-48.5c-4.4 0-8-4.3-8-8.7v12.3c0 4.4 3.6 8 8 8h56.5v-20.3c0 4.4-3.6 8.7-8 8.7z" fill="#d4d6d6"/>
<path class="st4" d="m88.24 114h-56.4c-4.9 0-8.6-4-8.6-9v-44c0-5 3.8-9 8.6-9h56.4c.6 0 1 .4 1 1v60c0 .6-.4 1-1 1zm-56.4-60c-3.7 0-6.7 3.1-6.7 7v44c0 3.9 2.9 7 6.6 7h55.5v-58z" fill="#7c4119"/>
<path class="st3" d="m65.94 64.1c0 1.5-1.3 2.8-3 2.8h-13.6c-1.7 0-3-1.2-3-2.8 0-1.5 1.3-2.8 3-2.8h13.7c1.6 0 2.9 1.3 2.9 2.8z" fill="#eaad53"/>
<path class="st4" d="m63.24 68h-14c-2.2 0-4-1.8-4-4s1.8-4 4-4h14c2.2 0 4 1.8 4 4s-1.8 4-4 4zm-14-6c-1.1 0-2 .9-2 2s.9 2 2 2h14c1.1 0 2-.9 2-2s-.9-2-2-2z" fill="#7c4119"/>
<g fill="#fff">
<path class="st2" d="m74.74 32h-12.6c-1.1 0-2-.9-2-2s.9-2 2-2h12.7c1.1 0 2 .9 2 2s-1 2-2.1 2z"/>
<path class="st2" d="m108.7 109.8c-.4 0-.8-.2-.9-.6-.2-.5.1-1.1.6-1.3 1.2-.5 2.8-1.5 2.8-5.5v-27.2c0-.6.4-1 1-1s1 .4 1 1v27.2c0 3.8-1.4 6.3-4.1 7.3-.1.1-.3.1-.4.1z"/>
<path class="st2" d="m112.2 69.3c-.6 0-1-.4-1-1v-9c0-.6.4-1 1-1s1 .4 1 1v9c0 .6-.4 1-1 1z"/>
<path class="st2" d="m53.44 35h-19.3c-.6 0-1-.4-1-1s.4-1 1-1h19.3c.6 0 1 .4 1 1s-.4 1-1 1z"/>
</g>
<path class="st4" d="m122.2 114h-104c-.6 0-1-.4-1-1s.5-1 1-1h104c.6 0 1 .4 1 1s-.5 1-1 1z" fill="#7c4119"/>
<path class="st4" d="m108.3 114h-20.1c-.3 0-.5-.1-.7-.3s-.3-.4-.3-.7v-60c0-.6.4-1 1-1h20c5 0 8.9 4 8.9 9v44c.1 5-3.9 9-8.8 9zm-19.1-2h19.1c3.9 0 7-3.1 7-7v-44c0-3.9-3.1-7-7-7h-19.1z" fill="#7c4119"/>
<path class="st5" d="m40.08-11.96c-2.2 0-3.9-1.945-3.9-4.215 0-2.378 1.8-4.215 3.9-4.215s3.9 1.837 3.9 4.107c0 2.378-1.8 4.323-3.9 4.323zm0-6.592c-1.2 0-2.1.9727-2.1 2.27s.9 2.27 2.1 2.27 2.1-.9727 2.1-2.27c0-1.189-1-2.27-2.1-2.27z" fill="#fff" opacity=".5"/>
<path class="st1" d="m-385.7 24.5c1.1 0 2 .9 2 2v1.2c0 1.1.9 2 2 2h22.8c1.1 0 2 .9 2 2v25c0 1.1-.9 2-2 2h-46c-1.1 0-2-.9-2-2v-30.2c0-1.1.9-2 2-2z" fill="#fbd000"/>
<path class="st2" d="m-402.4 32h12.7c1.1 0 2-.9 2-2s-.9-2-2-2h-12.7c-1.1 0-2 .9-2 2s.9 2 2 2z" fill="#fff"/>
<path class="st4" d="m-405.2 59.7h46.3c1.7 0 3-1.3 3-3v-25c0-1.7-1.3-3-3-3h-22.9c-.6 0-1-.4-1-1v-.7c0-1.7-1.3-3-3-3h-19.4c-1.7 0-3 1.3-3 3v29.7c0 1.6 1.3 3 3 3zm46.3-29c.6 0 1 .4 1 1v25c0 .6-.4 1-1 1h-46.3c-.6 0-1-.4-1-1v-29.7c0-.6.4-1 1-1h19.5c.6 0 1 .4 1 1v.7c0 1.7 1.3 3 3 3z" fill="#7c4119"/>
<path class="st1" d="m-375.4 24.5c1.1 0 2 .9 2 2v1.2c0 1.1.9 2 2 2h22.9c1.1 0 2 .9 2 2v25c0 1.1-.9 2-2 2h-46c-1.1 0-2-.9-2-2v-30.2c0-1.1.9-2 2-2z" fill="#fbd000"/>
<path class="st2" d="m-391.7 32h12.6c1.1 0 2-.9 2-2s-.9-2-2-2h-12.7c-1.1 0-2 .9-2 2s1 2 2.1 2z" fill="#fff"/>
<path class="st4" d="m-394.2 59.7h45.7c1.7 0 3-1.3 3-3v-24.7c0-1.7-1.3-3-3-3h-22.9c-.6 0-1-.4-1-1v-1c0-1.7-1.3-3-3-3h-18.8c-1.7 0-3 1.3-3 3v29.7c0 1.6 1.3 3 3 3zm45.7-28.7c.6 0 1 .4 1 1v24.7c0 .6-.4 1-1 1h-45.7c-.6 0-1-.4-1-1v-29.7c0-.6.4-1 1-1h18.8c.6 0 1 .4 1 1v1c0 1.7 1.3 3 3 3z" fill="#7c4119"/>
<path class="st1" d="m-366.2 24.5c1.1 0 2.2.9 2.4 2l.2 1.5c.2 1.1 1.3 2 2.4 2h22.9c1.1 0 2 .9 2 2v24.7c0 1.1-.9 2-2 2h-46c-1.1 0-2-.9-2-2v-30.2c0-1.1.9-2 2-2z" fill="#fbd000"/>
<path class="st2" d="m-381.6 32h12.7c1.1 0 2-.9 2-2s-.9-2-2-2h-12.7c-1.1 0-2 .9-2 2s.9 2 2 2z" fill="#fff"/>
<path class="st4" d="m-384.2 60h46c1.7 0 3-1.3 3-3v-25c0-1.7-1.3-2-3-2l-22.9-1c-.6 0-1-.4-1-1v-1c0-1.7-1.3-3-3-3h-19.1c-1.7 0-3 1.3-3 3v30c0 1.7 1.3 3 3 3zm46-29c.6 0 1 .4 1 1v25c0 .6-.4 1-1 1h-46c-.6 0-1-.4-1-1v-30c0-.6.4-1 1-1h19.1c.6 0 1 .4 1 1v1c0 1.7 1.3 3 3 3z" fill="#7c4119"/>
<path class="st1" d="m-355.1 25c1.1 0 2 .9 2 2v1c0 1.1.9 2 2 2h22.9c1.1 0 2 .9 2 2v24.7c0 1.1-.9 2-2 2h-46c-1.1 0-2-.9-2-2v-30.2c0-1.1.9-2 2-2z" fill="#fbd000"/>
<path class="st4" d="m-374.2 59.7h46c1.7 0 3-1.3 3-3v-24.7c0-1.7-1.3-3-3-3h-22c-.7 0-1.6-.6-1.8-1.2l-.5-1.3c-.6-1.4-2.2-2.5-3.7-2.5h-18c-1.7 0-3 1.3-3 3v29.7c0 1.6 1.3 3 3 3zm46-28.7c.6 0 1 .4 1 1v24.7c0 .6-.4 1-1 1h-46c-.6 0-1-.4-1-1v-29.7c0-.6.4-1 1-1h18c.7 0 1.6.6 1.8 1.2l.5 1.3c.5 1.4 2.2 2.5 3.7 2.5z" fill="#7c4119"/>
<g fill="#fff">
<path class="st5" d="m-292.1-38.27c1.9 0 3.5-1.729 3.5-3.783 0-2.161-1.6-3.783-3.5-3.783s-3.5 1.729-3.5 3.783c0 2.053 1.6 3.783 3.5 3.783zm0-5.836c1 0 1.9.8646 1.9 2.053 0 1.081-.8 2.053-1.9 2.053-1 0-1.9-.8646-1.9-2.053s.9-2.053 1.9-2.053z" opacity=".5"/>
<path class="st5" d="m-376.8-1.267c2.2 0 3.9-1.945 3.9-4.215 0-2.378-1.8-4.215-3.9-4.215s-3.9 1.837-3.9 4.107c0 2.378 1.8 4.323 3.9 4.323zm0-6.592c1.2 0 2.1.9727 2.1 2.27 0 1.297-.9 2.27-2.1 2.27s-2.1-.9727-2.1-2.27c0-1.189 1-2.27 2.1-2.27z" opacity=".5"/>
<path class="st5" d="m-346.7-41.86c0-.4323.4-.8646 1-.9727l1.9-.3242c.5-.1081 1.1-.6484 1.1-1.189l.3-2.053c.1-.5404.5-1.081.9-1.081s.8.4323.9 1.081l.2 2.053c.1.5404.6 1.189 1.1 1.189l1.9.3242c.5.1081 1 .5404 1 .9727s-.4.8646-1 .9727l-1.9.3242c-.5.1081-1.1.6484-1.1 1.189l-.3 2.053c-.1.5404-.5 1.081-.9 1.081s-.8-.4323-.9-1.081l-.3-2.27c-.1-.5404-.6-1.081-1.1-1.189l-1.8-.1081c-.6-.2161-1-.6484-1-.9727z" opacity=".5"/>
<path class="st5" d="m-405.3-32.01c0-.4323.4-.8646 1-.9727l1.9-.3242c.5-.1081 1.1-.6484 1.1-1.189l.3-2.053c.1-.5404.5-1.081.9-1.081s.8.4323.9 1.081l.3 2.053c.1.5404.6 1.189 1.1 1.189l1.9.3242c.5.1081 1 .5404 1 .9727s-.4.8646-1 .9727l-1.9.3242c-.5.1081-1.1.6484-1.1 1.189l-.3 2.053c-.1.5404-.5 1.081-.9 1.081s-.8-.4323-.9-1.081l-.3-2.27c-.1-.5404-.6-1.081-1.1-1.189l-1.8-.1081c-.7-.2161-1.1-.6484-1.1-.9727z" opacity=".5"/>
</g>
<path class="st6" d="m-319.9 61c0-4.4-3.6-8-8-8h-56.3v60h56.3c4.4 0 8-3.6 8-8z" fill="#eaeaea"/>
<path class="st7" d="m-384.2 53h-20c-4.4 0-8 3.6-8 8v44c0 4.4 3.6 8 8 8h20z" fill="#d4d6d6"/>
<path class="st2" d="m-371.2 84c0 2.2 1.8 4 4 4h30c2.2 0 4-1.8 4-4v-6c0-2.2-1.8-4-4-4h-30c-2.2 0-4 1.8-4 4z" fill="#fff"/>
<g fill="#9e928a">
<path class="st8" d="m-356 80h18.8c.6 0 1-.4 1-1s-.4-1-1-1h-18.8c-.6 0-1 .4-1 1s.5 1 1 1z"/>
<path class="st8" d="m-366.7 80h6.5c.6 0 1-.4 1-1s-.4-1-1-1h-6.5c-.6 0-1 .4-1 1s.5 1 1 1z"/>
<path class="st8" d="m-349.1 85h11.9c.6 0 1-.4 1-1s-.4-1-1-1h-11.9c-.6 0-1 .4-1 1s.4 1 1 1z"/>
<path class="st8" d="m-362.8 85h9.7c.6 0 1-.4 1-1s-.4-1-1-1h-9.7c-.6 0-1 .4-1 1s.4 1 1 1z"/>
</g>
<path class="st7" d="m-376.2 101h48.5c4.4 0 8-4.3 8-8.7v12.3c0 4.4-3.6 8-8 8h-56.5v-20.3c0 4.4 3.6 8.7 8 8.7z" fill="#d4d6d6"/>
<path class="st4" d="m-384.2 114h56.4c4.9 0 8.6-4 8.6-9v-44c0-5-3.8-9-8.6-9h-56.4c-.6 0-1 .4-1 1v60c0 .6.4 1 1 1zm56.4-60c3.7 0 6.7 3.1 6.7 7v44c0 3.9-2.9 7-6.6 7h-55.5v-58z" fill="#7c4119"/>
<path class="st3" d="m-361.9 64.1c0 1.5 1.3 2.8 3 2.8h13.6c1.7 0 3-1.2 3-2.8 0-1.5-1.3-2.8-3-2.8h-13.7c-1.6 0-2.9 1.3-2.9 2.8z" fill="#eaad53"/>
<path class="st4" d="m-359.2 68h14c2.2 0 4-1.8 4-4s-1.8-4-4-4h-14c-2.2 0-4 1.8-4 4s1.8 4 4 4zm14-6c1.1 0 2 .9 2 2s-.9 2-2 2h-14c-1.1 0-2-.9-2-2s.9-2 2-2z" fill="#7c4119"/>
<g fill="#fff">
<path class="st2" d="m-370.7 32h12.6c1.1 0 2-.9 2-2s-.9-2-2-2h-12.7c-1.1 0-2 .9-2 2s1 2 2.1 2z"/>
<path class="st2" d="m-404.7 109.8c.4 0 .8-.2.9-.6.2-.5-.1-1.1-.6-1.3-1.2-.5-2.8-1.5-2.8-5.5v-27.2c0-.6-.4-1-1-1s-1 .4-1 1v27.2c0 3.8 1.4 6.3 4.1 7.3.1.1.3.1.4.1z"/>
<path class="st2" d="m-408.2 69.3c.6 0 1-.4 1-1v-9c0-.6-.4-1-1-1s-1 .4-1 1v9c0 .6.4 1 1 1z"/>
<path class="st2" d="m-349.4 35h19.3c.6 0 1-.4 1-1s-.4-1-1-1h-19.3c-.6 0-1 .4-1 1s.4 1 1 1z"/>
</g>
<path class="st4" d="m-418.2 114h104c.6 0 1-.4 1-1s-.5-1-1-1h-104c-.6 0-1 .4-1 1s.5 1 1 1z" fill="#7c4119"/>
<path class="st4" d="m-404.3 114h20.1c.3 0 .5-.1.7-.3s.3-.4.3-.7v-60c0-.6-.4-1-1-1h-20c-5 0-8.9 4-8.9 9v44c-.1 5 3.9 9 8.8 9zm19.1-2h-19.1c-3.9 0-7-3.1-7-7v-44c0-3.9 3.1-7 7-7h19.1z" fill="#7c4119"/>
<path class="st5" d="m-335.6-10.63c2.2 0 3.9-1.945 3.9-4.215 0-2.378-1.8-4.215-3.9-4.215s-3.9 1.837-3.9 4.107c0 2.378 1.8 4.323 3.9 4.323zm0-6.592c1.2 0 2.1.9727 2.1 2.27s-.9 2.27-2.1 2.27-2.1-.9727-2.1-2.27c0-1.189 1-2.27 2.1-2.27z" fill="#fff" opacity=".5"/>
</g>
</g>
</g>
</g>
</g>
</g>
</g>
<g transform="matrix(.3205 0 0 .2998 137.5 16.92)">
<g transform="matrix(-.2105 .7648 -.6681 -.2223 -39.18 131.4)" fill="#fff">
<g transform="matrix(.9172 .4401 -.3874 .9044 -124.6 104.3)" stroke-width="3.632">
<path d="m38.34 62.61-34.38-25.06s3.438-7.154 3.438-14.32c0-7.162-3.438-14.33-3.438-14.33l34.38 25.06zm0 61.37-34.38-28.64s3.438-3.583 3.438-10.74c0-7.158-3.438-14.32-3.438-14.32l34.38 25.06zm0-30.69-34.38-28.64s3.438-3.583 3.438-10.74c0-7.158-3.438-14.32-3.438-14.32l34.38 25.06z" fill="#cfd8dc"/>
<path d="m40.48 101c-.753 0-1.513-.2724-2.145-.8401l-36.53-30.69c-1.485-1.327-1.723-3.74-.5364-5.393 1.183-1.653 3.352-1.922 4.831-.5984l36.53 30.69c1.485 1.327 1.723 3.74.5364 5.393-.6773.9436-1.678 1.438-2.685 1.438z" fill="#3f51b5"/>
<path d="m124.3 66.45h-89.39s3.438 6.682 3.438 16.29c0 9.605-3.438 14.4-3.438 14.4h89.39s3.438-3.836 3.438-15.34c0-11.51-3.438-15.34-3.438-15.34z" fill="#3f51b5"/>
<path d="m40.48 70.28c-.753 0-1.513-.2723-2.145-.84l-36.53-30.69c-1.485-1.327-1.723-3.74-.5364-5.393 1.183-1.653 3.352-1.926 4.831-.5984l36.53 30.69c1.485 1.327 1.723 3.74.5364 5.393-.6773.9436-1.678 1.438-2.685 1.438z" fill="#9c27b0"/>
<path d="m124.3 35.76h-89.39s3.438 6.682 3.438 16.29-3.438 14.4-3.438 14.4h89.39s3.438-3.836 3.438-15.34c0-11.51-3.438-15.34-3.438-15.34z" fill="#9c27b0"/>
<path d="m43.87 127.8c0-1.124-.3885-2.24-1.238-2.996l-36.53-30.69c-1.478-1.323-3.648-1.051-4.831.5984-1.186 1.657-.9455 4.07.5364 5.393l32.96 27.69z" fill="#8bc34a"/>
<path d="m124.3 97.13h-89.39s3.438 6.682 3.438 16.29-3.438 14.4-3.438 14.4h89.39s3.438-3.836 3.438-15.34-3.438-15.34-3.438-15.34z" fill="#8bc34a"/>
<path d="m124.3 97.13h-89.39s1.516 2.9 2.52 7.672h89.51c-1.014-5.527-2.641-7.672-2.641-7.672z" fill="#689f38"/>
<path d="m124.3 66.45h-89.39s1.516 2.9 2.52 7.672h89.51c-1.014-5.527-2.641-7.672-2.641-7.672z" fill="#303f9f"/>
<path d="m52.21 93.3c.3782-1.726 1.028-5.29 1.028-9.59s-.6498-7.863-1.028-9.59h-6.993c.0091.03452 1.145 4.86 1.145 9.59s-1.138 9.563-1.145 9.59zm0-30.69c.3782-1.726 1.028-5.29 1.028-9.59s-.6498-7.863-1.028-9.59h-6.993c.0091.03452 1.145 4.86 1.145 9.59s-1.138 9.563-1.145 9.59zm0 61.37c.3782-1.726 1.028-5.29 1.028-9.59s-.6498-7.863-1.028-9.59h-6.993c.0091.0346 1.145 4.86 1.145 9.59s-1.138 9.563-1.145 9.59z" fill="#fdd835"/>
<path d="m126.9 43.43c-1.014-5.527-2.641-7.672-2.641-7.672l-38.36-32.26s-2.685-2.267-6.34-2.267h-75.64l.06201.06905c-1.083-.02302-2.159.4565-2.843 1.511-1.117 1.711-.777 4.112.7564 5.355l33.48 28.65c.5536 1.247 1.437 3.529 2.087 6.605z" fill="#7b1fa2"/>
</g>
<g class="control-icon stop" transform="matrix(.09936 -.3093 .2819 .1102 -130.2 417.8)">
<path d="m212.3 242.6.0868-83.91c-136.5 30.55-138.4 240-132 334.4-63.62-173.5-94.67-406.1 115.5-412.4l-21.57-80.57 185.7 75.49z"/>
</g>
<g class="control-icon play" transform="matrix(.2474 .2 .1758 -.2545 -244.6 24.36)" fill="#fff">
<path d="m212.3 242.6.0868-83.91c-136.5 30.55-138.4 240-132 334.4-63.62-173.5-94.67-406.1 115.5-412.4l-21.57-80.57 185.7 75.49z"/>
</g>
</g>
<g stroke-width="1.029">
<path transform="matrix(.3285 0 0 .3613 -63.37 857.5)" d="m-440.7-2283-54.09-114.5c-1.994-4.222.907-9.189 5.366-9.189h95.54c2.293 0 4.385 1.382 5.391 3.563l55.41 120.1z" fill="#e9bb00"/>
<path transform="matrix(.3285 0 0 .3613 -63.37 857.5)" d="m-452.9-2083-2.753-233h150.9l-43.12 263.5-90.5-15.1c-8.028 0-14.44-6.889-14.54-15.39z" fill="#ddb100"/>
<path transform="matrix(.3285 0 0 .3613 -63.37 857.5)" d="m-347.9-2052v-263.5h302.9v248.1c0 8.496-6.508 15.38-14.54 15.38z" fill="#fbca00"/>
</g>
<polygon transform="matrix(.1945 0 0 .2065 -182.7 14.23)" points="119.1 311.7 278.3 333.9 255.7 77.91 119.1 77.91" fill="#fff"/>
<polygon transform="matrix(.1945 0 0 .2065 -182.7 14.23)" points="392.9 155.8 337.3 133.6 315 77.91 255.7 77.91 256.1 333.9 392.9 311.7" fill="#fff"/>
<polygon transform="matrix(.1945 0 0 .2065 -182.7 14.23)" points="315 77.91 392.9 155.8 315 155.8" fill="#e5e5e5"/>
<rect transform="matrix(3.12 0 0 3.335 -672.5 101.9)" x="164.4" y="-6.986" width="17.07" height="7.579" fill="#9c27b0" stroke-width=".06212"/>
<g fill="#fff">
<path transform="matrix(.1945 0 0 .2065 -182.7 14.23)" d="m199.5 384.5h-10.6v14.91h-13.47v-52.98h23.69c14 0 22.02 6.659 22.02 18.46 0 8.097-3.406 13.92-9.611 17.03l11.12 17.48h-15.29zm-.378-10.6c5.828 0 9.233-2.952 9.233-8.552 0-5.525-3.405-8.324-9.233-8.324h-10.22v16.88h10.22z"/>
<path transform="matrix(.1945 0 0 .2065 -182.7 14.23)" d="m244.2 389.6-3.859 9.763h-13.85l22.86-52.98h13.85l22.33 52.98h-14.38l-3.783-9.763zm11.65-29.82-7.72 19.6h15.29z"/>
<path transform="matrix(.1945 0 0 .2065 -182.7 14.23)" d="m316.4 384.5h-10.6v14.91h-13.47v-52.98h23.69c14 0 22.02 6.659 22.02 18.46 0 8.097-3.406 13.92-9.611 17.03l11.12 17.48h-15.29zm-.378-10.6c5.826 0 9.233-2.952 9.233-8.552 0-5.525-3.407-8.324-9.233-8.324h-10.22v16.88h10.22z"/>
</g>
<path transform="matrix(.3285 0 0 .3613 -63.37 857.5)" d="m-73.83-2316v248.1c0 8.496-6.508 15.38-14.54 15.38h28.86c8.028 0 14.54-6.888 14.54-15.38v-248.1z" fill="#ddb100" stroke-width="1.029"/>
</g>

</svg>
